<svg preserveAspectRatio="none" width="100%" height="100%" overflow="visible" style="display: block;" viewBox="0 0 40 40" fill="none" xmlns="http://www.w3.org/2000/svg">
<g id="La&#204;&#136;nder_Outlines_Europa&#204;&#136;isches Parlament 1">
<path id="Vector" d="M30.01 13.65C30.07 13.58 29.8 13.54 29.78 13.52C29.76 13.5 29.51 13.73 29.49 13.73C29.46 13.71 29.38 13.5 29.33 13.56C29.23 13.63 29.23 13.77 29.25 13.88C29.23 13.9 28.95 13.99 29.08 14.03C29.18 14.02 29.3 14 29.36 14.1C29.36 14.12 29.36 14.2 29.39 14.21C29.47 14.2 29.56 14.08 29.53 13.99C30.02 13.98 29.65 13.94 30.01 13.64V13.65Z" fill="var(--fill-0, #666666)"/>
<path id="Vector_2" d="M29.34 13.3H29.52C29.52 13.47 29.54 13.56 29.68 13.37C29.73 13.32 29.8 13.23 29.77 13.15C29.77 13.12 29.56 13.05 29.54 13.03C29.5 13.01 29.44 13.12 29.42 13.14C29.4 13.14 29.31 13.14 29.3 13.16C29.29 13.19 29.28 13.3 29.33 13.3H29.34Z" fill="var(--fill-0, #666666)"/>
<path id="Vector_3" d="M37.13 26.38C37.13 26.38 37.02 26.25 36.99 26.25C36.93 26.26 36.71 26.23 36.71 26.15C36.81 26.17 36.81 26.08 36.81 26.01C36.76 25.93 36.55 25.79 36.49 25.71C36.49 25.5 36.49 25.47 36.27 25.5C36.27 25.31 36.17 25.04 35.94 25.11C35.9 25.05 35.99 24.51 35.81 24.6C35.81 24.58 35.81 24.41 35.78 24.4C35.72 24.4 35.45 24.2 35.5 24.4C35.35 24.34 35.16 24.11 35.03 24.33C34.89 24.21 34.83 24.12 34.64 24.17C34.68 24.02 34.36 24.13 34.3 24.11C34.14 24.24 33.94 24.49 33.71 24.4C33.64 24.37 33.58 24.34 33.5 24.34C33.4 24.39 33.14 24.45 33.16 24.6C33.12 24.73 32.81 24.66 32.7 24.69C32.26 25.21 32.33 24.69 31.81 24.9C31.79 24.9 31.72 25.03 31.7 25.04C31.49 25.04 31.28 24.87 31.07 24.87C30.98 24.87 30.72 24.89 30.64 24.93C30.6 24.89 30.48 24.86 30.43 24.9C30.4 24.87 30.44 24.75 30.43 24.71C30.37 24.65 30.43 24.54 30.46 24.48C30.48 24.48 30.54 24.48 30.56 24.46C30.58 24.45 30.53 24.34 30.53 24.32C30.55 24.25 30.68 24.21 30.69 24.15C30.66 24.11 30.69 24.05 30.72 24.02C30.73 24.02 30.72 23.91 30.71 23.9C30.75 23.67 30.68 23.35 30.85 23.15C30.97 23.15 31.01 23 31.04 22.92C31.06 22.83 31.21 22.69 31.27 22.63C31.38 22.65 31.54 22.63 31.6 22.53C31.66 22.39 31.69 22.16 31.5 22.1C31.46 21.97 31.59 22 31.56 21.93C31.42 21.81 31.32 21.55 31.14 21.48C31.2 21.42 31.17 21.37 31.12 21.32L31.17 21.03C31.33 21.03 31.24 20.93 31.13 20.97C31.19 20.29 31.21 20.76 30.91 20.46C30.99 20.38 31.31 20.2 31.29 20.06C31.33 19.87 31.31 19.48 31.14 19.36C30.99 19.24 30.92 19.05 30.94 18.86C30.84 18.78 30.8 18.63 30.8 18.5H30.91C30.87 18.64 31.08 18.56 31.15 18.57C31.25 18.53 31.33 18.35 31.37 18.26C31.49 18.27 31.65 18.2 31.74 18.14C31.81 18.21 31.91 18.29 31.87 18.12C32.13 18.1 32.01 17.57 32.01 17.4C32.07 17.35 32.49 17.32 32.4 17.17C32.68 17.17 32.73 17.14 32.9 16.92C32.97 16.83 32.52 16.83 32.5 16.81C32.57 16.67 32.61 16.37 32.83 16.43C32.87 16.44 32.91 16.36 32.94 16.34C33.04 16.48 33.17 16.35 33.27 16.29C33.42 16.15 33.29 16.07 33.17 15.98C33.25 15.93 33.42 15.82 33.51 15.77C33.56 15.78 33.72 15.73 33.59 15.7C33.42 15.74 33.41 15.42 33.4 15.31L33.28 15.14C33.28 15.11 33.28 15.02 33.24 15.02C33.1 15.04 33.05 15.03 32.99 14.9C33.02 14.89 33.18 14.92 33.17 14.86C33.14 14.72 33.22 14.24 32.93 14.47C32.93 14.41 32.86 14.44 32.82 14.44V14.4C32.94 14.44 32.97 14.23 33.01 14.16C33.03 14.09 32.92 14.13 32.89 14.12C32.8 14.07 32.75 13.97 32.85 13.9C32.92 13.93 33.02 14.11 33.1 14.05C33.31 13.85 33.08 13.66 32.87 13.62C32.88 13.5 32.82 13.32 32.74 13.23C32.79 13.11 32.89 13 32.72 12.93C32.67 12.86 32.87 12.7 32.9 12.65C33.01 12.14 32.42 12.34 32.15 12.34C32.05 12.19 31.88 12.26 31.76 12.34C31.83 12.17 31.27 12.32 31.22 12.29C31.2 12.29 31.12 12.39 31.11 12.4L30.51 12.44C30.45 12.44 30.51 12.62 30.49 12.65C30.36 12.65 30.14 12.65 30.1 12.81C30.13 13 30.04 13.21 30.33 13.13V13.26C30.14 13.19 30.29 13.65 30.27 13.71C30.32 13.78 30.51 13.96 30.61 13.91C30.66 13.91 30.63 13.83 30.63 13.8C30.7 13.7 30.79 13.67 30.88 13.78C30.8 13.89 30.78 14.1 30.81 14.23C30.78 14.24 30.7 14.25 30.7 14.29C30.7 14.5 30.85 15.17 30.59 15.29C30.52 15.35 30.26 15.07 30.21 15.04C30.24 14.84 30.11 14.74 29.96 14.63C29.95 14.61 29.87 14.63 29.85 14.63L29.76 14.56C29.76 14.53 29.77 14.43 29.72 14.44C29.53 14.42 29.32 14.54 29.2 14.68C29 14.66 29.01 15 29.03 15.13C28.75 15.65 28.69 16.44 28.94 16.98C28.97 17.17 28.88 17.38 29.18 17.3C29.17 17.37 29.26 17.46 29.31 17.49C29.37 17.47 29.45 17.52 29.49 17.56C29.22 17.58 29.25 17.63 29.09 17.4C29.02 17.38 28.87 17.44 28.79 17.45C28.77 17.51 28.78 17.63 28.88 17.59C28.83 17.73 28.74 17.89 28.57 17.86C28.59 17.35 28.42 17.63 28.19 17.81C28.27 17.93 27.97 18.02 28.05 18.1L28.21 18.14C28.23 18.22 28.14 18.32 28.05 18.31C27.99 18.31 28.05 18.59 28.05 18.62L27.8 18.64C27.8 18.34 27.38 18.81 27.28 18.59C27.27 18.48 27.28 18.24 27.15 18.19C27.21 17.99 26.89 18.11 26.8 18.09C26.74 18.12 26.69 18.23 26.61 18.21C26.49 18.15 26.37 18.07 26.29 18.23C26.21 18.23 26.14 18.23 26.17 18.33C26.09 18.31 26.04 18.39 26 18.44C25.9 18.31 25.85 18.36 25.78 18.48C25.74 18.53 25.64 18.64 25.6 18.68C25.52 18.66 25.44 18.74 25.4 18.8C25.32 18.8 25.26 18.82 25.29 18.91C25.01 18.91 24.66 18.95 24.6 19.29C24.4 19.47 24.6 19.41 24.61 19.57C24.46 19.62 24.34 19.47 24.36 19.33C24.36 19.27 24.07 19.33 24.05 19.33C24.01 19.01 24.14 18.86 23.71 18.94C23.73 18.82 23.57 18.79 23.59 18.67C23.53 18.58 23.38 18.68 23.34 18.76L23.15 18.77C23.05 18.82 22.86 18.93 22.76 18.99C22.7 18.92 22.59 18.85 22.63 19.01C22.55 19.01 22.22 19.06 22.16 19C22.19 18.99 22.16 18.93 22.17 18.91C22.33 18.95 22.24 18.73 22.25 18.66C22.25 18.6 22.04 18.66 22.01 18.65C21.99 18.65 21.94 18.73 21.93 18.74C21.86 18.58 21.81 18.54 21.63 18.58C21.66 18.43 21.5 18.49 21.42 18.49C21.5 18.19 21.65 18.42 21.27 18.09C21.28 18.05 21.36 18.05 21.39 18.05C21.49 17.99 21.24 17.88 21.21 17.82L21.28 17.75C21.28 17.75 21.44 17.75 21.39 17.69C21.36 17.66 21.27 17.6 21.29 17.55C21.44 17.58 21.38 17.42 21.38 17.34C21.46 17.36 21.52 17.28 21.56 17.22C21.66 17.22 21.71 17.2 21.68 17.1C21.68 17.1 21.87 16.99 21.87 16.98C21.91 16.87 22.02 16.74 21.87 16.66C21.9 16.63 21.95 16.56 22 16.58C21.98 16.78 22.21 16.66 22.25 16.55C22.29 16.32 22.18 16.15 21.93 16.22C21.93 16.14 21.9 16.1 21.82 16.12C21.79 16.07 21.87 16 21.9 15.97C21.92 15.97 22.01 15.97 22.02 15.94C22 15.87 21.87 15.84 21.9 15.73C21.9 15.67 21.7 15.73 21.67 15.72C21.62 15.72 21.65 15.8 21.65 15.83C21.53 15.83 21.31 15.83 21.25 15.96C21.2 16.01 21.36 16.06 21.36 16.11C21.31 16.05 21.26 16.05 21.21 16.11C21.25 15.81 20.91 15.97 20.95 16.17C20.86 16.2 20.79 16.04 20.69 16.08C20.71 15.97 20.63 15.97 20.55 15.99C20.5 15.99 20.53 16.09 20.53 16.11C20.35 16.16 20.51 16.92 20.49 17.04C20.48 17.06 20.36 17.15 20.41 17.19C20.46 17.23 20.54 17.32 20.62 17.29C20.6 17.37 20.68 17.43 20.74 17.47L20.77 17.92C20.72 17.92 20.77 18.26 20.77 18.28C20.81 18.31 20.89 18.37 20.87 18.43C20.81 18.48 20.66 18.55 20.58 18.55C20.56 18.62 20.58 18.74 20.68 18.7C20.67 18.88 20.72 18.92 20.89 18.98C20.83 19.03 20.8 19.09 20.89 19.14C20.18 19.12 20.77 19.41 20.46 19.7C20.39 19.64 20.41 19.47 20.38 19.39C20.3 19.37 20.19 19.39 20.23 19.5H20.19C20.19 19.5 20.24 19.38 20.27 19.34C20.22 19.13 19.68 19.23 19.52 19.24C19.47 19.24 19.5 19.34 19.5 19.36C19.41 19.42 19.33 19.66 19.52 19.61C19.55 19.68 19.45 19.78 19.38 19.77C19.33 19.54 19.48 19.29 19.11 19.38C19.05 19.44 18.95 19.56 18.85 19.59C18.84 19.18 18.77 19.59 18.5 19.53C18.4 19.58 18.21 19.68 18.17 19.79C18.19 20.04 18.32 20.65 17.88 20.6V20.44C17.88 20.44 18.04 20.27 17.91 20.28C18.17 20.08 18.06 19.82 17.74 19.88C17.74 19.72 17.64 19.79 17.68 19.91C17.62 20.01 17.56 20.2 17.6 20.32C17.56 20.37 17.49 20.45 17.52 20.51C17.33 20.5 17.48 20.63 17.35 20.73C17.32 20.74 17.12 20.72 17.13 20.78C17.15 20.86 17.1 21.07 17.25 21.01C17.29 21.07 17.15 21.11 17.12 21.14C17.11 21.11 17.13 20.95 17.08 20.96C17.05 20.96 16.93 20.95 16.94 21C16.96 21.02 16.94 21.45 17 21.43C17.04 21.43 17.11 21.42 17.14 21.46C17.07 21.48 16.97 21.59 17 21.67L16.66 21.69C16.68 21.58 16.54 21.48 16.44 21.51C16.47 21.33 16.25 21.4 16.2 21.51C16.12 21.42 16.04 21.37 16.07 21.55L15.92 21.63C15.67 21.65 15.04 21.54 15.17 22C15.03 22.07 15.11 22.39 15.11 22.51C15.01 22.51 14.87 22.53 14.82 22.63C14.66 22.63 14.47 22.81 14.33 22.87C14.22 22.9 13.73 22.83 13.94 23.07C14.04 23.05 14.21 23.12 14.28 23.19C14.22 23.18 14.22 23.24 14.23 23.28C14.12 23.18 13.8 23.22 13.67 23.23C13.71 23.07 13.51 23.15 13.43 23.14C13.33 23.14 12.93 22.83 12.98 23.05L12.85 22.99C13.07 22.82 12.63 22.83 12.9 22.61C12.95 22.51 12.72 22.58 12.69 22.57C12.63 22.5 12.53 22.44 12.44 22.49C12.42 22.5 12.44 22.59 12.44 22.6L12.35 22.7C12.32 22.85 12.37 23.1 12.48 23.21C12.37 23.27 12.37 23.45 12.41 23.55C12.44 23.57 12.54 23.65 12.52 23.7H12.36C12.3 23.65 12.19 23.61 12.11 23.63C12.34 23.42 11.79 23.57 11.73 23.54C11.67 23.49 11.55 23.4 11.58 23.55H11.44C11.42 23.37 11.49 23.2 11.21 23.27C11.17 23.22 11.39 23.03 11.24 23.07C11.17 23.26 11.05 23.06 10.94 23.09C10.9 23.14 10.81 23.22 10.84 23.3H10.7C10.75 23.14 10.43 23.25 10.36 23.24C10.33 23.23 10.26 23.1 10.22 23.15C10.17 23.28 9.95 23.27 9.84 23.28C9.7 23.5 10 23.43 10.12 23.42V23.57C10.06 23.57 10.03 23.6 10.05 23.67C10.03 23.67 9.86 23.67 9.85 23.69C9.78 23.77 9.66 23.89 9.87 23.85C9.96 23.85 10.14 24.32 10.14 24.05C10.22 24.08 10.39 24.2 10.34 24.02H10.37C10.35 24.13 10.6 24.34 10.71 24.3C10.71 24.38 10.73 24.42 10.81 24.4C10.77 24.71 11 24.57 11.19 24.58C11.02 24.75 11.29 24.63 11.34 24.75C11.32 24.84 11.18 25.04 11.38 24.98C11.54 25.05 11.42 25.21 11.58 25.17C11.62 25.24 11.4 25.4 11.4 25.46C11.4 25.56 11.5 25.82 11.62 25.78C11.62 25.89 11.64 26.02 11.75 26.07C11.75 26.09 11.75 26.17 11.77 26.18C11.84 26.2 12.02 26.34 12.07 26.21V26.33C12.07 26.33 11.91 26.5 12.04 26.48C11.95 26.52 12.01 26.78 12.01 26.85C11.92 26.91 11.84 27.15 12.03 27.1C12.03 27.2 12.05 27.33 12.15 27.38L12.17 27.7C12.09 27.68 12.14 27.5 12.1 27.45L12 27.36C12 27.34 12 27.26 11.98 27.25L11.88 27.17C11.88 27.15 11.88 27.06 11.85 27.05C11.65 27.08 11.73 27.45 11.73 27.58C11.65 27.65 11.64 27.78 11.66 27.88C11.42 27.88 11.66 27.99 11.74 28.02C11.6 28.2 11.41 27.94 11.48 28.32C11.43 28.37 11.35 28.44 11.38 28.52C11.24 28.49 11.3 28.65 11.3 28.73C11.18 28.72 11.07 28.86 11.11 28.97L10.76 29.38C10.69 29.28 10.55 29.28 10.45 29.3C10.36 29.27 10.2 29.19 10.13 29.12C10.02 29.09 9.68 29.2 9.61 29.06C9.43 28.68 9.41 29 9.15 28.77L8.75 28.8C8.69 28.7 8.54 28.71 8.44 28.72C8.35 28.64 8.25 28.49 8.11 28.53C8.04 28.5 7.87 28.42 7.79 28.45C7.45 28.35 7.76 28.23 7.37 28.28C7.3 28.14 7.08 28.19 6.96 28.2C6.78 28.08 6.75 27.94 6.54 28.12C6.5 28.05 6.4 27.9 6.33 27.85C6.31 27.82 6.35 27.6 6.27 27.64C6.22 27.67 6.06 27.77 5.99 27.75C5.93 27.69 5.81 27.6 5.84 27.76C5.74 27.78 5.37 27.74 5.64 27.91L5.52 28.05C5.5 27.9 5.3 27.88 5.18 27.91C5.04 27.73 5.02 27.87 4.96 28.01C4.93 28 4.87 27.9 4.84 27.95C4.84 27.98 4.6 28.18 4.65 28.22L4.75 28.31C4.75 28.41 4.79 28.46 4.86 28.36C4.85 28.42 4.76 28.49 4.69 28.48C4.64 28.48 4.66 28.6 4.68 28.62C4.75 28.64 4.87 28.63 4.83 28.53H4.98C4.99 28.61 4.85 28.67 4.89 28.78C4.82 28.84 4.73 28.96 4.9 28.93C4.92 28.98 4.87 29.04 4.84 29.07C4.74 28.95 4.67 29.02 4.6 29.13C4.6 29.26 4.65 29.48 4.65 29.61C4.53 29.68 4.58 29.92 4.58 30.03C4.45 30.15 4.36 30.26 4.41 30.45C4.28 30.56 4.18 30.69 4.23 30.87C4.16 30.93 4.08 31.1 4.05 31.19C3.98 31.27 3.82 31.38 3.86 31.51C3.79 31.57 3.72 31.73 3.69 31.82C3.57 31.82 3.34 31.82 3.29 31.95C3.27 31.95 3.31 32.26 3.3 32.27C3.18 32.41 3.08 32.5 3.13 32.7C3.13 32.76 3.32 32.7 3.35 32.72C3.4 32.76 3.47 32.84 3.54 32.81C3.64 33.25 3.35 33.12 3.38 33.4C3.27 33.49 3.28 33.54 3.39 33.63C3.37 33.69 3.29 33.84 3.32 33.9C3.24 33.88 3.14 33.98 3.11 34.04C3.14 34.11 3.07 34.27 3.04 34.34C2.97 34.39 2.87 34.55 2.97 34.6C3.07 34.6 3.23 34.6 3.28 34.49C3.46 34.63 3.25 34.71 3.58 34.66C3.63 34.74 3.81 34.81 3.89 34.84C3.95 34.88 4.04 35 4.09 34.88C4.19 35.09 4.56 34.62 4.71 34.9C4.76 34.94 4.87 35.03 4.91 35.08C4.91 35.1 4.91 35.19 4.94 35.2C5.64 35.4 4.83 35.64 5.35 35.58C5.32 35.64 5.26 35.77 5.28 35.83C5.13 35.83 4.97 35.83 5.19 35.98C5.2 36 5.19 36.19 5.21 36.2C5.49 36.45 5.36 36.1 5.67 36.59C5.74 36.56 5.82 36.44 5.79 36.36C5.88 36.29 6.06 36.24 6.17 36.25C6.37 36 6.45 36.25 6.68 36.21C6.71 36.21 6.77 36.01 6.79 35.99C6.95 35.95 7.16 36.04 7.27 36.16C7.59 36.15 7.43 36.16 7.62 36.34L8.23 36.3C8.25 36.3 8.46 36.42 8.47 36.38C8.51 36.28 8.64 36.26 8.73 36.27C8.77 36.31 8.86 36.39 8.93 36.36C8.91 36.56 9.14 36.43 9.19 36.33C9.21 36.33 9.19 36.14 9.19 36.12C9.25 36.08 9.44 36.03 9.38 35.92C9.49 35.92 9.61 35.91 9.66 35.79L9.94 35.77C10.09 35.83 10.18 35.92 10.28 35.74C10.46 35.65 10.51 35.61 10.47 35.4C10.5 35.34 10.57 35.3 10.64 35.31C10.71 35.27 10.78 35.16 10.75 35.08C10.85 34.99 11.1 34.96 11.22 34.96C11.24 34.94 11.47 34.72 11.43 34.68C11.38 34.64 11.31 34.57 11.33 34.5C11.33 34.48 11.22 34.41 11.21 34.4L11.17 33.81C11.27 33.69 11.41 33.54 11.55 33.48C11.6 33.44 11.73 33.23 11.82 33.27C11.92 33.2 12.14 32.92 12.22 32.83L12.41 32.71C12.53 32.73 12.6 32.62 12.43 32.65V32.62C12.53 32.63 12.54 32.58 12.52 32.5C12.5 32.34 13.53 32.36 13.61 32.33C13.69 32.28 13.84 32.2 13.94 32.19C13.98 32.05 14.24 32.1 14.34 32.06C14.38 32.01 14.45 31.93 14.52 31.95C14.53 31.96 14.72 31.72 14.73 31.72C14.75 31.71 14.73 31.63 14.73 31.61L14.81 31.51C14.83 31.49 14.8 31.18 14.79 31.16C14.83 31.11 14.72 31.09 14.71 31.04C14.65 30.98 14.83 30.92 14.77 30.86C14.59 30.77 14.8 30.63 14.75 30.49L14.83 30.4C14.85 30.4 14.93 30.4 14.94 30.38C14.99 30.24 15.24 30.28 15.34 30.25C15.73 29.73 15.56 30.35 16.11 30.2C16.11 30.36 16.12 30.5 16.26 30.29C16.39 30.32 16.41 30.16 16.52 30.17C16.52 30.38 16.52 30.39 16.74 30.36C16.74 30.5 16.74 30.66 16.88 30.46L17.07 30.62C17.05 30.71 17.14 30.78 17.2 30.83C17.44 30.83 17.97 30.89 17.85 30.48C17.92 30.45 18.22 30.52 18.15 30.35H18.3C18.3 30.62 18.51 30.2 18.62 30.19C18.66 30.08 18.8 30.06 18.9 30.07C19 30.03 19.16 29.93 19.22 29.84C19.2 29.71 19.31 29.61 19.39 29.52L19.68 29.5C19.78 29.57 19.91 29.8 20.01 29.59C20.62 29.98 20.14 29.55 20.55 29.54C20.45 29.62 20.5 29.76 20.6 29.82C20.41 29.94 20.66 30.03 20.74 30.13C20.82 30.33 20.93 30.74 21.01 30.94C21.15 30.98 21.29 31.47 21.39 31.54C21.57 31.5 21.73 31.79 21.81 31.92C21.98 32.03 22.85 32.84 23.04 32.97C23.27 32.94 23.08 33.24 23.45 33.15C23.52 33.25 23.57 33.45 23.68 33.24C23.85 33.35 24.1 33.71 24.31 33.7C24.39 33.76 24.53 33.94 24.64 33.88C24.88 34.07 24.55 34.38 25 34.47C25.19 34.43 25.51 34.51 25.51 34.74C25.62 34.77 25.69 35.03 25.73 35.12C25.81 35.26 25.9 35.54 25.88 35.7C25.84 35.79 25.69 35.81 25.61 35.81C25.52 35.89 25.69 36.26 25.53 36.34C25.39 36.45 25.4 36.6 25.55 36.69C25.55 36.71 25.86 36.67 25.87 36.68C25.93 36.65 25.99 36.54 26.07 36.57C26.12 36.57 26.09 36.47 26.09 36.45C26.35 36.36 26.29 36.26 26.28 36.03C26.47 35.8 26.51 35.67 26.84 35.7C26.91 35.73 26.8 34.96 26.82 34.95C26.71 34.8 26.62 34.84 26.49 34.93C26.38 34.81 26.32 34.56 26.36 34.4C26.47 34.41 26.48 34.35 26.46 34.26C26.5 34.23 26.63 34.1 26.49 34.12C26.55 34.02 26.66 33.93 26.78 33.95C26.79 34.2 27.25 34.12 27.42 34.11C27.42 34.21 27.44 34.34 27.54 34.39C27.52 34.48 27.63 34.58 27.7 34.61C28.15 34.67 27.99 34.2 27.99 33.93C28 33.89 27.78 33.84 27.76 33.82C27.67 33.56 27.38 33.38 27.11 33.44C27.05 33.4 26.95 33.3 26.89 33.26C26.7 33.24 26.49 33.14 26.36 32.99C26.36 32.97 26.06 33.01 26.04 33C25.96 32.93 25.78 32.82 25.67 32.82C25.69 32.77 25.76 32.77 25.8 32.77C25.83 32.77 25.93 32.65 25.93 32.63C25.96 32.32 25.79 32.39 25.57 32.32C25.29 32.32 24.76 32.47 24.64 32.09C24.51 31.95 24.28 31.79 24.19 31.61C24.04 31.5 23.87 31.3 24.06 31.14C24.06 30.98 23.81 30.8 23.82 30.62C23.82 30.6 23.72 30.52 23.71 30.51C23.71 30.5 23.71 30.31 23.69 30.31C23.52 30.32 23.31 30.18 23.15 30.13C23.07 30.15 22.92 30.1 22.85 30.06C22.87 29.98 22.8 29.91 22.74 29.87C22.76 29.79 22.67 29.65 22.62 29.59C22.72 29.53 22.71 29.38 22.7 29.28C22.79 29.2 23.06 28.87 22.76 28.93L22.67 28.85C22.67 28.81 22.67 28.71 22.6 28.74C22.74 28.6 22.78 28.79 22.74 28.48C22.86 28.46 23.29 28.5 23.34 28.33C23.42 28.33 23.47 28.32 23.45 28.23H23.6C23.58 28.3 23.7 28.4 23.77 28.41C23.65 28.71 23.81 29.14 24.08 29.3C24.11 29.12 24.14 28.69 24.36 28.66C24.73 28.76 24.86 29.25 24.84 29.59C25.01 29.62 25.21 29.78 25.29 29.93L25.07 29.98L25.44 30.43L25.5 30.32C25.59 30.45 25.79 30.7 25.88 30.82C25.92 30.79 26.24 30.71 26.21 30.63C26.39 30.77 26.68 31.09 26.78 31.3C26.97 31.24 27.19 31.45 27.29 31.58L27.42 31.52L27.55 31.78L27.75 31.71L26.75 30.82L26.82 30.59C26.55 30.58 26.05 30.18 25.86 30.01L25.72 29.21C25.55 29.1 25.44 28.94 25.44 28.73C25.77 28.58 25.78 28.6 26.02 28.87L26.17 28.6L26.85 28.66C27.31 28.84 27.27 28.52 27.43 28.78L27.51 28.67C27.59 28.82 27.7 28.78 27.83 28.74C27.94 28.92 28.05 28.93 28.24 28.91C28.24 28.85 28.29 28.65 28.3 28.58L28.42 28.6L28.19 28.38C28.21 28.31 28.08 28.19 28.04 28.15C28.08 28.04 28 27.88 28.02 27.76C28.17 27.75 28.33 27.71 28.43 27.58C28.55 27.53 28.66 27.48 28.75 27.61C28.77 27.63 28.8 27.61 28.81 27.58C28.87 27.56 29.01 27.56 28.97 27.45C29.12 27.42 29.28 27.47 29.43 27.5C29.34 27.7 29.32 27.74 29.56 27.7C29.56 27.71 29.58 28.11 29.6 28.11C29.7 28.15 29.72 28.29 29.71 28.38C29.71 28.44 29.91 28.38 29.94 28.4C30.01 28.46 30.16 28.54 30.14 28.65C30.05 28.72 30.06 28.87 30.07 28.97C30.11 29.04 30.35 28.97 30.42 28.97C30.48 28.94 30.56 29.02 30.59 29.06C30.59 29.06 30.79 29.14 30.8 29.14C30.85 29.18 30.91 29.06 30.94 29.04C31.01 29 31.12 28.88 31.19 29C31.08 29.07 31.05 29.28 31.23 29.23C31.23 29.25 31.36 29.4 31.3 29.41L31.05 29.69C31.01 29.69 30.89 29.69 30.94 29.76C31.03 29.85 31.06 30.04 31.07 30.16C31.12 30.2 31.2 30.27 31.18 30.34C31.23 30.42 31.43 30.3 31.49 30.42C31.43 30.46 31.39 30.53 31.41 30.61C31.17 30.71 31.21 30.8 31.23 31.02C31.07 30.98 31.15 31.18 31.14 31.27C31.08 31.89 31.43 31.84 31.82 32.16C31.84 32.36 31.57 32.34 31.91 32.45C31.78 32.51 31.66 32.64 31.58 32.75C31.58 32.75 31.4 32.77 31.39 32.75C31.36 32.74 31.28 32.62 31.25 32.66C31.15 32.8 31.07 32.91 30.88 32.88C30.77 32.97 30.54 33.04 30.4 33.03C30.33 32.96 30.21 32.85 30.24 33.04C30.18 33.02 30.02 33.13 30.06 33.2C30.19 33.29 30.31 33.38 30.28 33.56C30.16 33.65 30.14 33.88 30.02 33.96C29.86 33.96 29.89 34.02 29.99 34.1C29.78 34.25 29.56 34.16 29.63 34.51C29.37 34.48 29.67 34.8 29.75 34.86C29.75 34.88 29.93 34.86 29.94 34.86C29.94 34.98 29.95 35.28 30.13 35.25C30.16 35.13 30.39 35.14 30.48 35.13V35.27C30.37 35.27 30.07 35.27 30.09 35.45C30.19 35.49 30.2 35.64 30.2 35.73C30.2 35.78 30.31 35.75 30.34 35.75L30.55 35.83C30.58 35.85 30.64 35.74 30.67 35.73L30.83 35.72C30.8 35.92 31.01 35.72 31.08 35.7L31.47 35.67C31.54 35.72 31.77 35.98 31.73 35.75H31.89C31.98 35.83 32.16 35.98 32.28 36C32.25 36.06 32.19 36.09 32.13 36.08C32.11 36.08 32.05 36.16 32.03 36.17C31.97 36.14 31.94 36.07 31.95 36.01C31.85 35.86 31.77 35.89 31.64 35.98C31.69 35.83 31.22 35.95 31.18 35.94C31.14 36.07 30.79 36.05 30.7 36.06C30.62 36.11 30.56 36.23 30.59 36.32C30.64 36.4 30.69 36.59 30.82 36.53C30.87 36.57 30.97 36.66 31.02 36.71C31.03 36.87 31.07 36.99 30.94 37.11C31.07 37.22 31.05 37.25 31.07 37.42C31.09 37.43 31.19 37.65 31.22 37.64C31.34 37.64 31.55 37.62 31.54 37.46C31.45 37.4 31.41 37.3 31.5 37.22C31.67 37.31 31.51 37.61 31.72 37.7C31.88 37.69 31.86 37.77 31.94 37.88C32.25 38.02 31.99 37.51 32.11 37.42C32.11 37.5 32.11 37.61 32.22 37.57C32.23 37.6 32.21 37.78 32.27 37.77C32.35 37.72 32.95 37.84 32.82 37.6C32.79 37.52 32.55 37.54 32.6 37.41C32.48 37.3 32.46 37.28 32.47 37.11C32.47 37.06 32.39 37.09 32.36 37.09L32.24 36.91C32.15 36.86 32.11 36.76 32.12 36.66C32.21 36.64 32.3 36.73 32.28 36.82C32.28 36.84 32.38 36.92 32.39 36.94C32.5 37.01 32.84 36.74 32.93 36.7C32.96 36.7 32.93 36.48 32.93 36.46C32.92 36.37 32.73 36.55 32.7 36.56C32.53 36.59 32.46 36.42 32.6 36.31C32.97 35.84 32.78 36.31 33.19 36.38C33.29 36.43 33.17 35.75 33.19 35.73C33.19 35.68 33.08 35.71 33.05 35.71L32.86 35.63C32.84 35.62 32.75 35.42 32.72 35.43C32.66 35.47 32.27 35.28 32.21 35.26C32.13 35.26 31.97 35.3 31.92 35.2C31.98 35.13 32.19 34.93 32.05 34.85C31.96 34.9 31.91 34.75 31.87 34.69C31.9 34.58 32.14 34.6 32.22 34.59L32.32 34.67C32.33 34.7 32.31 34.91 32.37 34.89C32.39 34.89 32.48 34.89 32.49 34.87C32.52 34.77 32.7 34.55 32.46 34.62L32.15 34.35C32.09 34.21 31.96 34.09 31.81 34.06C31.61 33.98 31.79 33.57 31.59 33.48C31.64 33.4 31.8 33.28 31.9 33.28C31.9 33.4 31.92 33.51 32.04 33.57C32.09 33.67 32.21 33.87 32.27 33.96C32.34 33.96 32.85 34.31 32.74 34.02C32.65 33.92 32.36 33.9 32.41 33.7C32.49 33.76 32.62 33.89 32.7 33.95C32.73 33.95 33.07 34.09 33.06 34C33.08 33.77 32.96 33.95 32.9 33.83C33.09 33.84 33.33 33.75 33.43 33.58C33.47 33.5 33.34 33.54 33.31 33.54C33.11 33.45 32.75 33.37 32.69 33.13C33.48 33.07 33.04 33.18 33.25 32.8C33.31 32.84 33.4 32.95 33.46 32.98C33.47 32.98 33.69 32.98 33.7 32.95C33.75 32.89 33.86 32.81 33.74 32.75C33.86 32.72 34.06 32.75 34.16 32.82C34.17 32.82 34.46 32.8 34.47 32.8C34.52 32.84 34.59 32.92 34.66 32.89L34.77 32.98C34.84 32.98 35.14 33 35.17 32.9V33C35.09 32.96 34.95 33.19 34.9 33.24C34.86 33.29 35.01 33.37 35.03 33.38C35.1 33.29 35.34 33.18 35.45 33.13C35.51 33 35.81 32.97 35.75 32.79C35.88 32.64 36.12 32.54 36.22 32.35C36.47 32.11 37.28 32.43 37.13 31.86C37.13 31.81 37.03 31.84 37 31.84C36.93 31.82 36.77 31.73 36.69 31.76C36.59 31.66 36.44 31.52 36.28 31.58C36.29 31.47 36.24 31.32 36.12 31.29C36.09 31.2 36.16 30.91 35.98 30.99C35.93 30.96 35.87 30.9 35.88 30.83C35.85 30.77 35.6 30.8 35.58 30.88C35.56 30.71 35.54 30.57 35.75 30.56C35.77 30.55 35.75 30.46 35.75 30.44L35.84 30.35C35.88 30.31 35.75 30.24 35.74 30.22L35.73 30.06C35.92 30.13 35.78 29.71 35.8 29.64C35.93 29.62 36.3 29.66 36.3 29.46C36.3 29.44 36.2 29.29 36.23 29.26C36.19 29.09 36.41 28.95 36.2 28.83L36.18 28.54C36.28 28.41 36.53 28.23 36.16 28.3C36.14 28.25 36.22 28.08 36.23 28.03C36.22 27.96 36.23 27.89 36.29 27.85C36.39 27.88 36.39 28.03 36.39 28.11C36.48 28.22 36.68 28.03 36.64 27.92C36.91 28.01 36.85 26.87 36.7 27.37C36.69 27.36 36.58 27.22 36.56 27.22C36.56 27.2 36.56 27.02 36.54 27.02C36.39 26.94 36.41 26.78 36.57 26.77C36.56 26.95 36.66 26.83 36.72 26.76C36.82 26.76 36.96 26.74 37.01 26.64C37.25 26.64 37.24 26.61 37.21 26.39L37.13 26.38ZM32.8 33.76C32.8 33.76 32.73 33.65 32.69 33.62H32.79L32.8 33.76ZM20.82 27.23C20.76 27.27 20.89 27.33 20.91 27.36L20.85 27.42C20.79 27.3 20.56 27.36 20.47 27.36C20.48 27.24 20.34 27.13 20.22 27.17C20.16 27.17 20.22 27.45 20.22 27.48C20.13 27.46 20.07 27.55 20.03 27.61C20.01 27.64 19.89 27.72 19.92 27.76C19.73 27.6 19.65 27.58 19.64 27.32C19.5 27.13 19.25 27.24 19.28 27.46L19.19 27.65C19.09 27.66 18.88 27.69 18.82 27.58C18.72 27.55 18.39 27.8 18.32 27.63C18.29 27.6 18.18 27.53 18.21 27.47C18.43 27.47 18.18 27.36 18.2 27.27C18.52 27.31 18.37 27.07 18.27 26.91C18.25 26.88 18.19 26.91 18.16 26.91C18.1 26.91 18.12 26.98 18.12 27.02C17.91 27.01 18.05 27.26 17.77 27.34C17.57 27.15 17.81 26.92 17.95 26.78C17.95 26.7 17.95 26.64 18.02 26.58C18.25 26.6 18.48 26.45 18.52 26.22C18.51 26.15 18.52 26.08 18.59 26.04C18.76 26.18 18.82 26.34 18.91 26.03C18.94 26.06 19.05 26.17 19.04 26.05C19.09 26.11 19.18 26.13 19.16 26.03C19.27 26.15 19.98 26.04 20.12 26.04C20.09 26.18 20.24 26.14 20.33 26.14C20.3 26.29 20.57 26.22 20.55 26.36C20.55 26.38 20.45 26.46 20.45 26.48C20.45 26.67 20.51 26.83 20.73 26.74C20.88 26.92 20.99 26.91 21.21 26.88L21.23 27.12H21.17C21.03 26.93 20.94 27.16 20.84 27.25L20.82 27.23ZM21.06 19.25C21.06 19.25 21.09 19.28 21.09 19.31L21.06 19.25Z" fill="var(--fill-0, #666666)"/>
<path id="Vector_4" d="M14.54 34.16C14.42 34.18 14.22 34.18 14.25 34C14.23 33.97 14.12 33.85 14.08 33.89C14.04 33.94 13.95 34.02 13.98 34.1C13.96 34.12 13.56 34.1 13.57 34.16C13.52 34.38 13.79 34.26 13.9 34.27C13.94 34.33 13.99 34.52 14.1 34.46C14.09 34.68 14.43 34.48 14.36 34.34C14.43 34.37 14.62 34.2 14.52 34.16H14.54Z" fill="var(--fill-0, #666666)"/>
<path id="Vector_5" d="M15.37 33.91C15.37 33.91 15.17 33.91 15.15 33.91C15.1 33.85 14.94 33.76 14.89 33.86C14.87 33.99 15 34.12 15.13 34.08C15.34 34.29 15.44 34.14 15.36 33.91H15.37Z" fill="var(--fill-0, #666666)"/>
<path id="Vector_6" d="M12.72 34.6C12.64 34.62 12.43 34.57 12.49 34.72C12.46 34.73 12.27 34.71 12.28 34.77C12.29 34.8 12.27 35.01 12.33 35.01L12.54 34.89C12.57 34.89 12.66 34.9 12.66 34.85C12.6 34.75 12.83 34.65 12.72 34.61V34.6Z" fill="var(--fill-0, #666666)"/>
<path id="Vector_7" d="M7.13 18.83C7.13 18.83 7.23 18.76 7.25 18.75L7.31 18.8C7.22 18.87 7.18 19.09 7.35 19.04C7.2 19.11 7.24 19.17 7.39 19.14C7.04 19.28 7.45 19.26 7.56 19.14C7.54 19.42 7.66 19.29 7.81 19.2C7.87 19.17 7.95 19.25 8 19.28C8.1 19.3 8.28 19.28 8.32 19.18C8.34 19.18 8.41 19.27 8.43 19.26C8.51 19.24 8.72 19.29 8.65 19.14C8.7 19.14 8.77 19.13 8.79 19.08C8.8 19.2 9.01 19.09 9.04 19.02L9.73 18.97C9.75 18.97 9.84 19.08 9.87 19.05C9.98 18.99 10.21 18.89 10.17 18.73C10.27 18.75 10.39 18.62 10.36 18.52C10.54 18.57 10.42 18.26 10.44 18.18C10.62 18.06 10.44 17.89 10.6 17.77C10.6 17.48 10.54 17.47 10.77 17.24C10.79 17.22 10.77 17.17 10.73 17.18L10.63 17.01C10.58 16.97 10.5 16.91 10.52 16.83C10.4 16.71 10.08 16.64 9.98 16.83C9.92 16.78 9.64 16.54 9.58 16.49C9.62 16.45 9.68 16.37 9.66 16.31C9.74 16.27 9.8 16.42 9.86 16.38C9.88 16.36 9.96 16.29 9.97 16.25C9.94 16.18 10.01 16.1 10.06 16.06C10.09 15.86 10.65 16.02 10.42 15.84C10.44 15.84 10.56 15.84 10.57 15.82C10.58 15.79 10.7 15.7 10.66 15.67C10.6 15.64 10.33 15.3 10.39 15.58L10.12 15.6C10.12 15.6 9.9 15.47 9.87 15.52C9.83 15.63 9.7 15.64 9.6 15.64C9.53 15.68 9.44 15.8 9.4 15.86C8.89 16 9.11 16.1 9.46 16.23C9.44 16.31 9.22 16.23 9.21 16.31C9.24 16.48 9.21 16.52 9.05 16.59C9 16.52 8.84 16.46 8.76 16.43C8.78 16.34 8.69 16.28 8.63 16.24C8.56 16.12 8.42 16.12 8.29 16.14C8.21 16.17 8.22 16.41 8.1 16.36C8.01 16.39 8.16 16.48 8.18 16.5L8.19 16.68C8.15 16.73 8.06 16.83 8.02 16.88C7.93 16.86 7.86 16.94 7.81 17.01C7.78 17.03 7.91 17.21 7.91 17.24C7.91 17.33 7.93 17.38 8.03 17.35C8.03 17.5 8.03 17.64 8.18 17.44L8.44 17.42C8.46 17.51 8.36 17.59 8.28 17.58C8.27 17.58 7.96 17.7 7.95 17.71L7.77 17.92C7.71 17.92 7.42 17.92 7.61 18.03C7.53 18.02 7.56 18.1 7.56 18.15C7.55 18.15 7.18 18.17 7.17 18.19C7.1 18.24 6.99 18.4 7.1 18.45C7.14 18.45 7.43 18.4 7.45 18.47C7.33 18.47 7.15 18.48 7.09 18.61C6.98 18.73 6.97 18.76 7.11 18.85L7.13 18.83ZM8.02 18.06C8.07 18.06 8.24 18.02 8.26 18.09C7.92 18.16 8.05 17.99 7.85 18.01C7.91 17.94 7.96 18.05 8.02 18.06Z" fill="var(--fill-0, #666666)"/>
<path id="Vector_8" d="M20.18 31.92C20.18 31.67 20.2 31.13 19.81 31.38C19.72 31.38 19.63 31.4 19.6 31.49C19.52 31.51 19.44 31.59 19.41 31.66C19.35 31.71 19.32 31.77 19.36 31.85C19.34 31.91 19.36 32.02 19.38 32.08C19.42 32.13 19.43 32.22 19.44 32.28C19.43 32.3 19.36 32.34 19.38 32.37C19.41 32.42 19.48 32.52 19.53 32.56C19.52 32.63 19.57 32.71 19.61 32.76C19.61 32.78 19.67 32.77 19.69 32.78C19.71 32.78 19.79 32.9 19.82 32.88C19.85 32.87 19.82 32.78 19.83 32.76L19.92 32.66C19.92 32.58 19.96 32.41 20 32.34C19.96 32.12 20.03 32.08 20.17 31.93L20.18 31.92Z" fill="var(--fill-0, #666666)"/>
<path id="Vector_9" d="M20.18 33.72H20.13C20.17 33.63 20.29 33.35 20.09 33.41C20.09 33.36 20.07 33.31 20.03 33.28C20.18 33.25 19.9 33.08 19.86 33.04C19.86 33.02 19.86 32.93 19.83 32.92C19.8 32.9 19.73 33.02 19.71 33.03C19.63 33.03 19.56 33.03 19.59 33.14C19.48 33.14 19.36 33.16 19.32 33.27C19.22 33.28 18.96 33.27 18.92 33.38C18.84 33.3 18.76 33.26 18.79 33.42C18.61 33.54 18.73 33.81 18.83 33.95C18.86 34.22 18.77 34.32 19.11 34.26C19.11 34.28 18.95 34.43 18.96 34.45C18.98 34.57 18.98 34.76 18.81 34.73C18.69 34.82 18.99 34.76 18.81 35.06C18.79 35.09 18.91 35.16 18.92 35.18C18.9 35.4 18.99 35.43 19.18 35.49C19.61 35.51 19.27 35.34 19.48 35.17C19.54 35.2 19.69 35.28 19.77 35.25C19.88 35.37 19.95 35.34 20.02 35.2L19.98 34.69C20.11 34.55 20.06 34.16 20.04 33.99C20.16 34.02 20.31 33.78 20.19 33.72H20.18Z" fill="var(--fill-0, #666666)"/>
<path id="Vector_10" d="M25.32 36.23C25.32 36.23 25.12 36.34 25.1 36.34C25 36.34 24.85 36.34 24.8 36.45C24.7 36.32 24.55 36.36 24.47 36.49C24.46 36.49 24.18 36.5 24.17 36.51C24.08 36.58 23.9 36.65 23.78 36.64C23.69 36.6 23.32 36.46 23.26 36.37C23.14 36.34 22.95 36.4 22.86 36.47C22.87 36.41 22.76 36.28 22.7 36.31L22.6 36.41C22.58 36.41 22.48 36.4 22.49 36.45C22.56 36.73 22.33 36.68 22.42 36.9C22.49 36.97 22.68 37.06 22.77 37.09C22.83 37.06 22.92 37.13 22.96 37.17C23.06 37.2 23.32 37.24 23.38 37.34C23.47 37.52 23.5 37.58 23.72 37.54C23.78 37.64 23.94 37.63 24.04 37.61C24.13 37.65 24.26 37.66 24.24 37.79C24.24 37.79 24.37 38.01 24.37 38C24.48 38.05 24.61 38.14 24.69 37.99C24.72 37.99 24.93 38.13 24.93 38.03C24.89 37.84 24.93 37.82 25.1 37.74C25.13 37.71 25.13 37.44 25.04 37.48C25.13 37.41 25.08 37.36 24.98 37.39C24.96 37.3 24.98 37.18 25.06 37.12C25.08 37.12 25.04 36.81 25.05 36.8C25.08 36.75 25.15 36.69 25.21 36.71C25.31 36.62 25.36 36.35 25.3 36.23H25.32Z" fill="var(--fill-0, #666666)"/>
<path id="Vector_11" d="M9.78 21.34C9.62 21.44 10.15 21.41 9.98 21.33L9.78 21.34Z" fill="var(--fill-0, #666666)"/>
<path id="Vector_12" d="M20.67 15.75C20.78 15.95 20.89 16.08 20.84 15.74C20.88 15.59 21.34 15.66 21.43 15.61C21.48 15.49 21.7 15.49 21.8 15.49C21.83 15.49 22.05 15.76 22.06 15.64C22.02 15.52 22.17 15.43 22.24 15.35C22.24 15.27 22.28 15.03 22.12 15.1C22.09 14.98 22.3 14.91 22.3 14.8C22.22 14.74 22.11 14.83 22.06 14.9L21.87 14.91C21.85 14.91 21.77 15.01 21.76 15.02C21.67 15 21.6 15.08 21.56 15.15C21.56 15.16 21.45 15.26 21.46 15.28C21.49 15.35 21.43 15.42 21.38 15.45C21.19 15.49 20.56 15.38 20.66 15.75H20.67Z" fill="var(--fill-0, #666666)"/>
<path id="Vector_13" d="M21.52 17.41C21.54 17.62 21.44 17.83 21.75 17.75C21.7 17.92 22.03 17.8 22.09 17.82C22.16 17.83 22.08 17.41 22.09 17.39C22.09 17.34 21.99 17.37 21.97 17.37C21.88 17.27 21.83 17.23 21.75 17.37C21.68 17.29 21.59 17.22 21.62 17.39C21.6 17.39 21.53 17.39 21.52 17.41Z" fill="var(--fill-0, #666666)"/>
<path id="Vector_14" d="M22.3 17.13C22.16 17.2 22.12 17.39 22.28 17.47C22.14 17.56 22.2 17.72 22.33 17.79C22.33 17.81 22.62 17.77 22.63 17.78V17.83C22.24 17.86 23.21 18.13 22.81 17.85L22.88 17.77C22.88 17.77 22.98 17.77 22.99 17.75C23.03 17.64 23.15 17.51 22.99 17.44C23.05 17.37 23.19 17.2 23.26 17.13C23.3 17.1 23.16 16.94 23.16 16.91C23.19 16.88 23.32 16.75 23.19 16.77C23.4 16.59 22.96 16.7 22.9 16.69C22.87 16.7 22.77 16.81 22.78 16.85C22.79 16.88 22.87 16.85 22.9 16.86L22.98 16.92C22.86 17.11 22.63 16.87 22.71 17.21C22.66 17.23 22.6 17.18 22.57 17.15C22.68 17.06 22.7 16.86 22.51 16.92C22.46 16.92 22.49 17.02 22.49 17.04C22.46 17.09 22.39 17.15 22.32 17.14L22.3 17.13Z" fill="var(--fill-0, #666666)"/>
<path id="Vector_15" d="M22.5 18.15C22.5 18.15 22.42 18.15 22.41 18.15C22.45 17.99 22.24 18.07 22.16 18.06C22.07 18.13 22.18 18.27 22.26 18.31C22.34 18.42 22.48 18.42 22.6 18.4C22.69 18.33 22.57 18.19 22.5 18.15Z" fill="var(--fill-0, #666666)"/>
<path id="Vector_16" d="M22.93 18.27C22.96 18.17 22.93 18.1 22.81 18.13C22.79 18.12 22.7 18.02 22.67 18.04C22.64 18.06 22.67 18.26 22.67 18.29C22.73 18.35 22.87 18.47 22.83 18.29C22.85 18.29 22.91 18.29 22.92 18.27H22.93Z" fill="var(--fill-0, #666666)"/>
<path id="Vector_17" d="M33.37 35.79C33.5 36.07 33.72 36.1 33.62 35.73C33.57 35.68 33.47 35.58 33.41 35.54C33.43 35.46 33.34 35.38 33.29 35.33C33.28 35.31 33.19 35.33 33.17 35.33L33.07 35.25C32.96 35.18 32.77 35.13 32.64 35.17C32.45 34.95 32.33 34.94 32.09 35.11C32.02 35.15 32.18 35.23 32.2 35.26C32.2 35.28 32.52 35.24 32.53 35.25C32.58 35.33 32.75 35.4 32.84 35.43C32.98 35.58 33.25 35.62 33.37 35.8V35.79Z" fill="var(--fill-0, #666666)"/>
<path id="Vector_18" d="M22.67 13.36C22.72 13.41 22.63 14.43 22.84 14.3C22.84 14.42 22.84 14.62 22.97 14.41C23.1 14.46 22.98 14.58 22.96 14.66C22.98 14.77 22.94 15.35 23.1 15.38C22.93 15.49 23.02 15.85 23.24 15.81C23.21 16.36 23.5 15.98 23.49 16.35C23.39 16.34 23.38 16.39 23.39 16.48C23.39 16.5 23.28 16.58 23.29 16.6C23.29 16.71 23.29 16.87 23.42 16.91C23.4 17 23.47 17.07 23.54 17.11C23.55 17.27 23.59 17.39 23.46 17.52C23.54 17.62 23.62 17.69 23.7 17.55C23.78 17.7 24 17.55 24.1 17.51C24.16 17.61 24.33 17.6 24.43 17.58C24.5 17.6 24.41 17.07 24.43 17.05C24.46 16.96 24.62 16.95 24.7 16.95C24.74 16.93 24.91 16.75 24.77 16.77C24.79 16.73 24.96 16.64 24.99 16.62C25.05 16.65 25.21 16.68 25.17 16.77C25.16 16.84 25.59 16.76 25.62 16.77C25.68 16.77 25.62 16.47 25.62 16.44C25.69 16.32 25.85 16.08 25.79 15.93C25.87 15.86 26.13 15.56 25.89 15.57C25.91 15.49 25.98 15.36 26.05 15.31C26.09 15.27 25.96 15.2 25.95 15.18L25.94 15C26 14.95 26.06 14.86 26.03 14.77C26.14 14.59 26.14 14.33 26 14.17C26.35 14 26.1 14 25.89 13.95C25.96 13.81 26.15 14.05 26.27 13.95C26.37 13.84 26.51 13.69 26.45 13.53H26.61C26.61 13.53 26.71 13.63 26.74 13.61C26.8 13.54 26.85 13.34 26.93 13.29L27.13 13.17C27.2 13.07 26.87 13.09 26.92 12.96L27.01 12.87C27.03 12.87 27.11 12.87 27.12 12.85C27.12 12.83 27.35 12.52 27.3 12.5C27.08 12.4 27.32 12.04 26.99 12.28C27.02 12.1 26.87 12.03 26.76 11.93C26.76 11.65 26.72 11.69 26.52 11.82C26.4 11.73 26.29 11.62 26.31 11.46C26.31 11.44 26.21 11.37 26.2 11.36C26.2 11.3 26.19 11.23 26.13 11.2C26.36 11.18 26.24 10.71 26.25 10.57C26.41 10.57 26.34 10.5 26.25 10.44C26.34 10.38 26.34 10.23 26.32 10.14C26.43 10.07 26.42 9.92 26.4 9.81C26.4 9.75 26.11 9.81 26.09 9.81C26.08 9.73 26.07 9.62 26.15 9.57C26.18 9.57 26.36 9.68 26.38 9.64L26.47 9.54C26.55 9.56 26.62 9.49 26.66 9.43C26.75 9.45 26.9 9.34 26.96 9.3C27.02 9.26 26.89 9.2 26.88 9.17C26.91 9.1 27.16 8.94 26.99 8.88C27.14 8.9 27.18 8.8 27.22 8.69C27.3 8.84 27.44 8.69 27.53 8.64C27.59 8.6 27.47 8.54 27.45 8.51C27.48 8.45 27.54 8.42 27.6 8.43C28.03 8.28 27.67 8 27.88 7.69C28.05 7.72 28.04 7.42 28.16 7.35C28.2 7.31 28.07 7.25 28.06 7.22L28.03 6.73C28.14 6.67 28.13 6.52 28.11 6.42C28.46 6.11 28.44 6.62 28.38 5.81H28.43C28.57 5.99 28.65 5.78 28.75 5.69C28.81 5.79 28.96 5.78 29.06 5.77C29.15 5.88 29.2 5.87 29.28 5.75C29.45 5.73 29.42 5.88 29.66 5.82C29.64 5.9 29.71 5.96 29.77 6C29.78 6.02 29.79 6.51 29.82 6.53C29.85 6.56 29.94 6.62 29.92 6.67C29.82 6.71 29.55 6.62 29.63 6.82C29.63 6.84 29.44 7.14 29.45 7.15C29.48 7.21 29.4 7.38 29.37 7.44C29.28 7.56 29.01 7.8 29.1 7.97C28.83 8.12 28.65 8.29 28.73 8.62L28.57 8.71C28.38 8.55 28.28 8.62 28.33 8.86L28.15 9.07C28.13 9.09 28.15 9.4 28.17 9.42C28.31 9.49 28.32 9.7 28.2 9.79C28.19 9.82 28.19 9.92 28.22 9.94L28.42 10.02L28.47 10.8C28.21 10.89 28.28 11.03 28.29 11.25C28.29 11.27 28.52 11.53 28.53 11.55C28.71 11.58 28.82 11.48 28.97 11.64C29.17 11.62 29.28 11.57 29.37 11.8C29.34 11.98 29.49 12.11 29.61 12.2C29.63 12.22 30.03 12.17 30.05 12.18C30.12 12.14 30.15 11.93 30.22 11.88C30.4 12.28 30.4 11.83 30.75 11.72C31.14 11.48 31.33 11.75 31.26 11.35L31.32 11.29C31.4 11.43 31.44 11.55 31.55 11.34C31.67 11.3 31.81 11.18 31.83 11.05C31.89 11.16 32.14 11.1 32.23 11.1C32.36 11.05 32.48 10.66 32.53 10.55C32.6 10.49 32.69 10.33 32.72 10.24C32.88 10.07 33.01 9.83 33.05 9.6C33.14 9.62 33.23 9.55 33.28 9.48C33.32 9.44 33.2 9.38 33.19 9.35C33.29 9.29 33.27 9.15 33.26 9.05C33.33 8.96 33.49 8.86 33.45 8.73C33.53 8.4 33.73 8.54 33.82 8.2C33.74 7.81 33.25 7.8 32.94 7.7C32.88 7.65 32.77 7.55 32.7 7.52C32.62 7.56 32.57 7.44 32.54 7.39C32.83 7.43 32.93 7.05 32.69 6.92C32.71 6.76 32.58 6.81 32.48 6.81C32.48 6.62 32.46 6.6 32.29 6.54C32.43 6.47 32.51 6.43 32.34 6.32C32.34 6.15 32.27 6.2 32.2 6.3C32.09 6.27 32.11 6.01 32.1 5.93C32.07 5.88 31.97 5.82 32 5.74C32.14 5.64 32.04 5.54 31.97 5.43C32.01 5.39 32.07 5.32 32.06 5.26C32.06 5.07 31.83 4.72 31.69 4.59C31.64 4.56 31.44 4.54 31.48 4.44C31.41 4.37 31.29 4.23 31.25 4.14L31.22 3.66C31.35 3.58 31.31 3.32 31.28 3.2C31.19 3.1 30.98 2.96 30.86 2.92C30.88 2.84 30.79 2.77 30.73 2.73C30.67 2.65 30.49 2.59 30.51 2.47C30.56 2.42 30.63 2.33 30.6 2.25C30.66 2.2 30.77 2.06 30.6 2.1C30.6 2 30.57 1.74 30.57 1.64C30.63 1.58 30.69 1.49 30.66 1.41C30.61 1.34 30.48 1.24 30.41 1.19C30.34 1.21 30.11 1.15 30.04 1.13C30.09 1 30.2 0.85 29.95 0.92C29.87 1.01 29.7 1.16 29.57 1.15H29.48C29.29 1.19 29.38 1.57 29.38 1.69C29.3 1.81 29.28 2.05 29.31 2.2C29.22 2.29 29.11 2.48 29.13 2.61C29.06 2.59 28.93 2.68 28.88 2.71C28.79 2.51 28.67 2.45 28.53 2.65L28.25 2.67C28.21 2.64 28.15 2.55 28.09 2.58C28.06 2.58 27.97 2.58 27.94 2.59C27.9 2.53 27.81 2.39 27.83 2.32C27.83 2.29 27.62 2.22 27.6 2.21C27.58 2.2 27.5 2.11 27.47 2.12C27.27 2.09 27.24 2.4 27.26 2.54C26.92 2.5 27.09 2.74 27.07 2.94C27.03 2.94 26.88 2.83 26.86 2.9C26.85 2.96 26.77 3.24 26.79 3.29C26.72 3.32 26.66 3.18 26.59 3.21C26.33 3.32 26.37 3.38 26.39 3.62C26.1 3.58 26 3.39 25.89 3.8C25.93 3.95 25.56 4.08 25.52 4.21C25.4 4.33 25.39 4.36 25.53 4.45C25.61 4.6 25.66 4.6 25.55 4.74C25.59 4.94 25.26 5.06 25.16 5.18C25.27 5.64 24.94 5.59 24.69 5.82C24.74 6.01 24.64 6.22 24.52 6.35L24.55 6.76C24.54 6.82 24.44 7.1 24.47 7.16C24.38 7.21 24.19 7.31 24.19 7.42C24.26 7.5 24.33 7.69 24.32 7.8L24.43 7.99C24.39 8.13 24.13 8.08 24.04 8.11C24.02 8.11 23.85 8.35 23.81 8.31C23.82 8.07 23.48 8.38 23.44 8.46C23.24 8.71 23.51 9.2 23.3 9.41C23.3 9.53 23.3 9.77 23.43 9.82C23.46 9.96 23.45 10.2 23.36 10.31C23.33 10.51 23.44 10.63 23.59 10.73C23.63 11.07 23.64 11.13 23.34 11.33C23.29 11.42 23.4 11.58 23.45 11.66C23.45 11.88 23.61 12.53 23.23 12.46C23.16 12.5 23.08 12.6 23.11 12.69C23.06 12.74 22.99 12.82 23.02 12.9C22.92 13.02 22.71 13.24 22.65 13.36H22.67Z" fill="var(--fill-0, #666666)"/>
<path id="Vector_19" d="M35.79 38.42C35.5 38.52 35.46 38.56 35.26 38.3C35.24 38.26 35.03 38.4 35 38.4L34.47 38.39C34.51 38.12 34 38.35 33.87 38.38H33.57C33.56 38.35 33.6 38.15 33.54 38.15C33.45 38.14 33.37 38.15 33.39 38.26C33 38.33 33.31 37.8 32.83 38.17C32.83 38.19 32.8 38.74 32.83 38.76C33.09 38.82 33.61 38.74 33.87 38.68C34.56 38.85 34.14 38.75 34.32 39.14L35.11 38.82C35.12 38.8 35.84 38.88 35.81 38.8C35.78 38.77 35.87 38.4 35.78 38.43L35.79 38.42Z" fill="var(--fill-0, #666666)"/>
<path id="Vector_20" d="M24.86 38.86C24.78 38.82 24.55 38.66 24.48 38.77C24.45 38.87 24.53 38.99 24.62 39.03C24.76 39.03 24.96 39.08 24.86 38.86Z" fill="var(--fill-0, #666666)"/>
<path id="Vector_21" d="M24.4 38.62C24.4 38.62 24.25 38.59 24.26 38.65C24.26 38.68 24.23 38.8 24.29 38.79C24.32 38.79 24.44 38.82 24.43 38.76C24.43 38.73 24.46 38.61 24.4 38.62Z" fill="var(--fill-0, #666666)"/>
</g>
</svg>
