<svg preserveAspectRatio="none" width="100%" height="100%" overflow="visible" style="display: block;" viewBox="0 0 40 40" fill="none" xmlns="http://www.w3.org/2000/svg">
<g id="La&#204;&#136;nder_Outlines_Bundestag 1">
<path id="Vector" d="M33.34 18.94C33.24 18.09 32.87 17.79 32.34 17.45C32.77 17.08 32.12 16.64 31.95 16.29C32.02 15.95 32.44 15.4 32.25 15.01C31.99 14.22 31.3 13.83 31.78 12.83C31.45 12.24 30.25 11.95 30.31 11.32C31.34 10.14 30.7 8.78 30.25 7.33C29.32 7.76 28.95 6.8 30.14 6.93C30.12 6.16 28.89 5.56 28.53 5.62C27.94 6.01 27.35 5.59 27.87 5.27C27.67 4.9 28.12 4.9 28.29 4.89C28.58 4.72 28.3 5.35 28.68 5.1C28.88 4.64 28.39 4.37 28.01 4.43C27.87 4.22 27.71 3.75 27.42 3.8C28.47 2.88 26.63 3.3 27.28 3.68C26.95 4.04 26.72 4.4 27.28 4.68C26.48 4.66 27.34 5.51 27.64 5.15C27.58 5.68 26.8 4.95 26.69 4.48C25.79 4.37 25.09 4.17 24.8 5.17C24.28 5.78 23.72 5.89 23.04 5.96C22.96 6.14 22.4 6.39 22.8 6.44C21.76 6.61 22.95 7.14 22.36 6.99C22.2 6.84 22.11 6.96 22 6.96C22 6.68 22.06 6.78 21.83 6.67C21.48 6.31 21.17 7.11 20.83 6.72C20.43 6.23 22 6.02 21.5 5.07C21.85 4.74 22.46 5 21.76 4.29C21.38 4.05 21.11 4.32 21.19 4.72C21.32 4.76 21.61 4.57 21.43 4.85C20.17 5.79 19.35 4.09 18.21 4.67C18.97 4.14 18.64 3 17.72 3C17.35 2.83 17.4 2.6 17.02 3.04C17 2.7 16.8 2.98 16.61 3.07C16.51 2.75 16.28 2.71 15.93 2.68C15.32 2.37 13.43 3.06 14.48 1.95C14 1.37 13.66 3.15 13.98 3.33C14.11 2.4 14.92 2.82 15.14 3.65C15.7 3.91 14.91 5.03 15.7 4.64C15.9 4.18 15.75 4.79 15.53 4.85C14.65 4.58 14.31 5.79 15.2 5.48C15.63 5.42 14.94 6.46 15.57 6.22C15.83 6.5 15.77 6.6 15.39 6.58C15.2 6.92 15.78 7.47 16.23 7.34C17.61 7.54 15.71 7.61 15.14 7.54C14.36 6.82 14.44 8.68 14.59 9.07C14.37 8.78 13.66 8.19 13.7 8.99C14.18 9.11 13.85 9.92 13.37 9.31C13.05 9.15 13.92 8.74 13.18 8.33C12.38 7.71 10.25 8.34 10.32 9.47C11.34 10.35 10.67 11.32 10.35 12.89C10.03 13.4 9.33 12.42 9.32 13.52C9.27 14.02 10.06 13.94 10.17 13.87C11.11 15.03 8.55 15.33 9.58 16.07C9.4 16.62 8.26 16.35 8.28 16.63C7.6 16.29 7.68 16.35 7.3 16.56C6.66 17 7.5 17.44 7.71 18.22C8.14 18.74 6.75 19.6 7.46 19.73C6.64 20.68 6.32 19.91 7.26 21.09C6.62 21.39 7.23 22.05 7.69 22.29C7.17 22.93 8.09 22.86 8.1 23.65C5.58 25.14 9.11 25.62 7.85 27.44C8.45 27.65 8.82 29.52 9.32 29.02C9.47 28.41 10.06 29.56 10.51 29.35C11.21 28.79 11.25 29.79 11.9 29.73C14.45 29.75 12.31 31.1 11.93 32.48C11.53 34.22 10.3 36.98 12.41 36.72C13.29 36.39 14.31 36.85 14.7 36.17C14.11 36.1 13.73 35.99 14.55 35.59C15.02 36.53 16.2 35.67 17.31 36.98C17.73 36.83 18.2 37.1 18.27 36.53C18.45 36.74 18.53 36.77 18.84 36.82C19.27 37.07 19.07 37.4 19.38 37.58C19.83 37.33 19.58 37.68 19.52 37.94C20.56 38.1 20.26 36.68 20.85 36.64C21.76 36.68 21.94 37.41 22.86 37.34C23.09 37.22 23.56 37.16 23.48 36.89C23.22 36.81 24.08 36.91 23.98 36.56C24.4 36.16 25.84 36.53 25.87 36.07C25.7 35.4 25.98 36.04 26.43 35.8C26.85 36.41 27.02 35.83 27.53 35.89C27.75 36.91 28.87 37.05 28.63 35.77C27.94 35.27 28.17 35.78 28.3 34.84C26.34 33.11 29.43 33.54 29.6 31.97C29.45 31.01 31.36 32.58 30.53 30.3C29.42 29.76 28.67 28.41 27.37 28.08C26.74 27.52 26.19 26.29 26.28 26.05C26.76 25.21 25.47 24.8 25.09 24.02C25.24 23.45 25.39 23.82 25.6 24.13C25.84 24.25 26.63 22.41 27.5 23.18C27.89 22.63 28.49 22.54 28.77 21.93C28.95 22.5 29.22 21.87 29.23 21.65C29.8 21.61 30.12 21.58 30.45 21.14C32.44 20.57 30.88 20.3 31.4 19.95C32.91 20.42 32.85 22.03 33.38 18.95L33.34 18.94Z" fill="var(--fill-0, #666666)"/>
</g>
</svg>
