<svg width="23" height="20" viewBox="0 0 23 20" fill="none" xmlns="http://www.w3.org/2000/svg">
<g clip-path="url(#clip0_7288_11643)">
<path d="M22.9964 7.33727L23.0001 18.7781C23.0001 19.4554 22.4525 19.9999 21.7916 20.0008H1.21223C0.501519 20.0008 0.000977704 19.4243 0.000977704 18.715V4.97563C5.58969e-05 4.1702 0.557749 3.67188 1.32654 3.67188L9.34994 3.67847L10.5428 5.90446C10.6451 6.09475 10.823 6.1833 11.059 6.13902L21.6229 6.13149C22.3124 6.13149 22.9964 6.51771 22.9964 7.33727Z" fill="#666666"/>
<path d="M21.4898 5.45523H11.0614L9.85939 3.21982C9.78288 3.07758 9.65936 2.99845 9.48145 2.99656H1.51519L1.50782 1.09368C1.50598 0.488908 1.91526 0.0244925 2.52457 0H9.59483L10.6411 1.93962C10.7084 2.06396 10.8411 2.14215 10.9978 2.15063H20.4721C21.0464 2.17512 21.4345 2.56983 21.4907 3.13786V5.45523H21.4898Z" fill="#666666"/>
</g>
<defs>
<clipPath id="clip0_7288_11643">
<rect width="23" height="20" fill="white"/>
</clipPath>
</defs>
</svg>
