<svg preserveAspectRatio="none" width="100%" height="100%" overflow="visible" style="display: block;" viewBox="0 0 120 72" fill="none" xmlns="http://www.w3.org/2000/svg">
<g id="AW_Logo_Full_Logo_mitClaim 3" clip-path="url(#clip0_7205_10445)">
<path id="Vector" d="M20.0914 30.1626L20.2101 29.1852L20.6399 25.6662L20.2083 29.187L20.0914 30.1626Z" fill="var(--fill-0, #463D8A)"/>
<path id="Vector_2" d="M21.6344 25.776C21.6416 25.7868 21.6524 25.7976 21.6578 25.8084C21.6668 25.8264 21.6794 25.8426 21.6866 25.8588C21.6812 25.8444 21.665 25.8246 21.6596 25.8084C21.6524 25.7976 21.6416 25.7868 21.6344 25.776Z" fill="var(--fill-0, #463D8A)"/>
<path id="Vector_3" d="M22.3843 19.9044C22.3987 19.7946 22.3987 19.7028 22.3861 19.6272C22.3969 19.7046 22.3987 19.7946 22.3843 19.9044Z" fill="var(--fill-0, #463D8A)"/>
<path id="Vector_4" d="M22.3807 19.5948C22.37 19.5174 22.3448 19.4598 22.3034 19.4184C22.3412 19.4598 22.3664 19.521 22.3807 19.5948Z" fill="var(--fill-0, #463D8A)"/>
<path id="Vector_5" d="M20.9906 22.7538L21.0913 21.9078L21.3952 19.3968L21.0913 21.9078L20.9906 22.7538Z" fill="var(--fill-0, #463D8A)"/>
<path id="Vector_6" d="M21.8854 22.5162C21.8707 22.5327 21.8487 22.5418 21.8322 22.5565C21.8487 22.5418 21.8707 22.5345 21.8854 22.518V22.5162Z" fill="var(--fill-0, #463D8A)"/>
<path id="Vector_7" d="M26.6501 45.6809V45.6886L26.652 45.6714L26.6501 45.6809Z" fill="var(--fill-0, #463D8A)"/>
<path id="Vector_8" d="M26.0081 48.9888L25.6628 50.7618L25.2491 52.9092L25.6646 50.7636L26.0081 48.9888Z" fill="var(--fill-0, #463D8A)"/>
<path id="Vector_9" d="M67.349 15.1578C67.349 15.1578 67.3544 15.174 67.3562 15.1812C67.3562 15.1722 67.3526 15.1632 67.3526 15.1578C67.3526 15.1578 67.3508 15.1542 67.3472 15.147C67.3311 15.1164 67.3203 15.0912 67.3041 15.0768C67.3167 15.0912 67.3329 15.1146 67.3454 15.1488C67.3454 15.1506 67.3472 15.1524 67.349 15.156V15.1578Z" fill="var(--fill-0, #463D8A)"/>
<path id="Vector_10" d="M66.3258 24.5592L67.011 18.9036L67.3616 16.0074L67.011 18.9018L66.3258 24.5592Z" fill="var(--fill-0, #463D8A)"/>
<path id="Vector_11" d="M66.6767 14.9706C66.6659 14.9706 66.6551 14.9706 66.6461 14.9706L66.574 14.9778C66.5992 14.976 66.6208 14.9742 66.6443 14.9724C66.6551 14.9724 66.6659 14.9724 66.6785 14.9706H66.6767Z" fill="var(--fill-0, #463D8A)"/>
<path id="Vector_12" d="M58.2097 16.2198C58.2097 16.2198 58.2151 16.2378 58.2187 16.2468C58.2565 16.3764 58.2834 16.6824 58.1953 17.4024C58.2852 16.6788 58.2601 16.3728 58.2223 16.245C58.2169 16.2342 58.2169 16.2234 58.2115 16.2198H58.2097Z" fill="var(--fill-0, #463D8A)"/>
<path id="Vector_13" d="M65.9211 18.5382L65.0867 25.4232L65.9211 18.5418L66.3528 15.0012L65.9211 18.5382Z" fill="var(--fill-0, #463D8A)"/>
<path id="Vector_14" d="M47.9608 17.0773C47.9608 17.0773 47.9608 17.0751 47.9629 17.073C47.9629 17.073 47.9629 17.0751 47.9608 17.0773Z" fill="var(--fill-0, #463D8A)"/>
<path id="Vector_15" d="M47.5688 18.0738C47.5957 17.8596 47.6389 17.694 47.6874 17.5518C47.7396 17.4006 47.8007 17.2836 47.8637 17.1936C47.7989 17.2836 47.7378 17.4006 47.6856 17.5518C47.6371 17.6958 47.5957 17.8596 47.5688 18.0756V18.0738Z" fill="var(--fill-0, #463D8A)"/>
<path id="Vector_16" d="M47.4465 27.1224C47.4177 27.1566 47.3871 27.1854 47.3565 27.2124C47.3871 27.1854 47.4195 27.1584 47.4465 27.1224Z" fill="var(--fill-0, #463D8A)"/>
<path id="Vector_17" d="M46.6336 27.1584C46.6174 27.1224 46.6012 27.0648 46.5886 26.9964C46.6012 27.0648 46.6156 27.1224 46.6336 27.1584Z" fill="var(--fill-0, #463D8A)"/>
<path id="Vector_18" d="M46.6336 27.1584C46.639 27.1728 46.6498 27.1836 46.6552 27.198C46.6678 27.2196 46.6839 27.2412 46.7055 27.261C46.6857 27.2412 46.6696 27.2196 46.657 27.198C46.6498 27.1836 46.639 27.171 46.6336 27.1584Z" fill="var(--fill-0, #463D8A)"/>
<path id="Vector_19" d="M48.6801 16.9776C48.7017 16.9974 48.7233 17.0262 48.7431 17.064C48.7485 17.073 48.7521 17.0838 48.7557 17.0928C48.7521 17.0838 48.7485 17.0694 48.7449 17.0604C48.7233 17.0262 48.7017 16.9956 48.6801 16.9776Z" fill="var(--fill-0, #463D8A)"/>
<path id="Vector_20" d="M46.5671 26.46C46.5724 26.3646 46.5778 26.2692 46.5904 26.1504C46.5742 26.2692 46.5689 26.3646 46.5635 26.4618C46.5563 26.6148 46.5617 26.7336 46.5689 26.8362C46.5617 26.7336 46.5581 26.6148 46.5653 26.4618L46.5671 26.46Z" fill="var(--fill-0, #463D8A)"/>
<path id="Vector_21" d="M48.4302 16.893C48.4392 16.893 48.4481 16.8948 48.4589 16.8966C48.5039 16.8966 48.5471 16.9038 48.583 16.9182C48.5453 16.9056 48.5021 16.8984 48.4571 16.8948C48.4464 16.8948 48.4392 16.8948 48.4302 16.8948V16.893Z" fill="var(--fill-0, #463D8A)"/>
<path id="Vector_22" d="M6.30689 15.9102L3.67048 37.6866L114.278 26.0514L116.914 4.275L6.30689 15.9102ZM15.1189 33.57L12.3494 33.8616L12.4339 31.3776C12.4339 31.3344 12.4178 31.2948 12.3854 31.266C12.3584 31.2372 12.3171 31.2246 12.2739 31.23L10.3065 31.437C10.2327 31.4442 10.1626 31.5054 10.1518 31.581L9.64647 34.146L6.79605 34.4466L10.3119 18.0342L15.5667 17.4816L15.1189 33.57ZM25.5962 19.9872L25.5045 20.709C25.4146 21.4596 25.2078 22.0878 24.8877 22.5738C24.5802 23.0472 24.1485 23.3856 23.6072 23.5818C23.5371 23.6106 23.4903 23.6736 23.4903 23.7474C23.4903 23.8212 23.5371 23.8806 23.6072 23.8896C24.2654 23.9904 24.6593 24.3378 24.8139 24.9498C24.9722 25.5978 24.9992 26.4204 24.8769 27.3924C24.7492 28.449 24.5424 29.3904 24.2493 30.204C23.9687 30.9942 23.5479 31.635 22.9994 32.1138C22.4581 32.5854 21.7136 32.877 20.7928 32.9742L16.545 33.4206L18.5124 17.1702L22.8034 16.7202C23.9363 16.5996 24.7276 16.7886 25.1646 17.28C25.6052 17.7768 25.7491 18.6876 25.5962 19.9872ZM34.705 20.7108L31.833 21.0114L31.9877 19.7244C32.0344 19.3464 32.02 19.0296 31.9445 18.7758C31.8869 18.5688 31.7161 18.3258 31.2377 18.3762C30.8061 18.4212 30.4932 18.6102 30.3062 18.9378C30.1479 19.2258 30.0472 19.5354 30.004 19.863L29.0311 27.8964C28.9772 28.3608 28.988 28.7424 29.0779 29.025C29.148 29.2626 29.3386 29.5308 29.8494 29.4768C30.254 29.4336 30.5579 29.2266 30.7324 28.8828C30.8924 28.5732 30.9985 28.179 31.0579 27.7002L31.3438 25.3386C31.3492 25.2954 31.333 25.2486 31.3061 25.2198C31.2755 25.1856 31.2323 25.1748 31.1838 25.1784L30.4932 25.2522L30.8025 22.7124L34.4712 22.3272L33.3436 31.653L32.2952 31.7628L31.9391 30.5388C31.9247 30.483 31.8708 30.4452 31.8114 30.4416C31.7539 30.4308 31.6891 30.4704 31.6585 30.5208C30.9878 31.572 30.0886 32.1444 28.9088 32.2686C28.0043 32.364 27.3137 32.1696 26.8497 31.698C26.1699 30.9978 25.9415 29.6586 26.1807 27.7128L27.0421 20.5686C27.409 17.5392 28.8549 15.9336 31.4607 15.66C32.52 15.5484 33.3113 15.678 33.8112 16.0398C34.3111 16.4034 34.6259 16.9884 34.7374 17.784C34.8489 18.5706 34.8381 19.5516 34.705 20.7108ZM42.8786 17.4492L39.8052 17.7732C39.7243 17.7822 39.6559 17.8524 39.6505 17.928L39.2567 21.1572C39.2513 21.2058 39.2675 21.2472 39.2944 21.2814C39.3268 21.3102 39.3682 21.3264 39.4167 21.321L42.3211 21.0168L41.9794 23.8104L39.0391 24.1182C38.9599 24.1272 38.8898 24.192 38.879 24.273L38.4222 28.0692C38.4168 28.1124 38.4276 28.1592 38.46 28.188C38.4906 28.2222 38.5337 28.233 38.5769 28.2294L41.8265 27.8874L41.4741 30.798L35.0395 31.4748L37.0069 15.2262L43.2293 14.571L42.8786 17.4492ZM52.0521 17.5914L51.1008 25.4628C50.9191 26.9298 50.4461 28.1034 49.6908 28.944C48.9355 29.7792 47.9194 30.2688 46.6606 30.402C45.4161 30.5316 44.4953 30.2508 43.936 29.565C43.3731 28.8738 43.1771 27.7776 43.3516 26.316L44.3101 18.4446C44.4738 17.0748 44.9359 15.9822 45.6769 15.2082C46.416 14.4378 47.4357 13.9788 48.7071 13.8456C49.9678 13.7124 50.8921 13.9608 51.4514 14.589C52.0143 15.2172 52.2175 16.2288 52.0521 17.5914ZM60.8048 19.2096C60.5386 19.728 60.0926 20.1204 59.4866 20.376C59.4164 20.4048 59.3697 20.4786 59.3751 20.547C59.3805 20.6208 59.4272 20.6748 59.5028 20.6838C59.9487 20.727 60.2365 20.9196 60.375 21.2562C60.5188 21.6252 60.5548 22.122 60.4811 22.7466L59.7419 28.8756L56.8376 29.1816L57.5983 22.8744C57.6684 22.3182 57.5821 21.987 57.3429 21.8628C57.1361 21.7512 56.807 21.7224 56.3376 21.771C56.2585 21.78 56.1884 21.8466 56.1794 21.9276L55.2802 29.3454L52.2967 29.6586L54.2641 13.41L59.1359 12.897C59.9272 12.8142 60.5026 12.9294 60.8479 13.2444C61.1986 13.5594 61.4054 14.0418 61.4648 14.6808C61.5277 15.345 61.5025 16.146 61.391 17.0676C61.2831 17.946 61.0871 18.6642 60.8048 19.2096ZM70.6868 15.354L69.7445 23.1138C69.5646 24.6438 69.1492 25.8696 68.527 26.7498C67.9155 27.612 66.948 28.1178 65.6496 28.2546L61.4486 28.6974L63.416 12.447L67.7663 11.9898C68.8885 11.871 69.7031 12.0942 70.1797 12.6558C70.6652 13.2228 70.8343 14.1318 70.6868 15.354ZM75.7115 27.1962L75.0946 19.2294C75.0839 19.1448 75.0191 19.0926 74.94 19.0962C74.8447 19.1016 74.7853 19.1718 74.7745 19.2528L73.7908 27.3978L70.9152 27.7002L72.8826 11.4516L75.9561 11.1276L76.4938 18.7578C76.4992 18.8424 76.5621 18.9 76.6466 18.891C76.7222 18.8874 76.7959 18.8154 76.8067 18.7344L77.7472 10.9386L80.5887 10.6398L78.6195 26.8902L75.7115 27.1962ZM88.3199 12.6702L85.2465 12.9924C85.1673 13.0014 85.0972 13.0716 85.0864 13.149L84.698 16.3764C84.6926 16.425 84.7087 16.4664 84.7357 16.5006C84.7681 16.5294 84.8094 16.5456 84.858 16.542L87.7624 16.236L87.4207 19.0296L84.4804 19.3392C84.3958 19.3482 84.3311 19.413 84.3203 19.494L83.8581 23.2902C83.8527 23.3316 83.8689 23.3784 83.9013 23.4072C83.9282 23.4414 83.975 23.4522 84.0182 23.4486L87.266 23.1066L86.9117 26.0172L80.4808 26.694L82.4482 10.4454L88.6652 9.7902L88.3199 12.6702ZM94.3552 12.1572L92.7493 25.4034L89.8035 25.713L91.3987 12.5046C91.4041 12.4614 91.3933 12.4146 91.3609 12.3858C91.3303 12.3588 91.2872 12.3408 91.2458 12.3462L89.4852 12.5316L89.8305 9.6678L96.6589 8.9496L96.3136 11.8134L94.5099 12.0024C94.4307 12.0114 94.366 12.0762 94.3552 12.1572ZM100.265 14.868C100.29 14.8968 100.338 14.913 100.382 14.9076L103.284 14.6034L102.944 17.3952L100.004 17.7048C99.923 17.7138 99.8546 17.7786 99.8439 17.8596L99.3871 21.6558C99.3817 21.699 99.3979 21.7458 99.423 21.7746C99.4554 21.8088 99.4986 21.8196 99.5453 21.8142L102.79 21.474L102.439 24.3846L96.0097 25.0614L97.9771 8.811L104.194 8.1576L103.843 11.0358L100.774 11.3598C100.694 11.367 100.626 11.439 100.615 11.5146L100.222 14.7438C100.216 14.7924 100.232 14.8338 100.265 14.868ZM111.629 23.418L108.719 23.724L108.102 15.7572C108.091 15.6726 108.028 15.6204 107.949 15.624C107.857 15.6276 107.794 15.6978 107.784 15.7806L106.8 23.9256L103.923 24.228L105.89 7.9794L108.963 7.6554L109.501 15.2856C109.507 15.3702 109.569 15.426 109.65 15.4188C109.729 15.4152 109.805 15.3432 109.816 15.2622L110.756 7.4664L113.596 7.1676L111.629 23.418Z" fill="var(--fill-0, #463D8A)"/>
<path id="Vector_23" d="M8.1736 40.743L5.53539 62.5194L10.8891 61.956L22.0588 70.155H22.0606L23.4885 60.6312L58.6719 56.9304L61.3101 35.154L8.1736 40.743ZM14.9103 59.2506L15.0542 51.5214C15.0596 51.4422 14.9966 51.3792 14.9157 51.3774C14.842 51.3792 14.761 51.4368 14.7413 51.5178L13.022 59.4486L9.32636 59.8374L9.57633 43.7688L12.4483 43.4664L12.0923 53.6652C12.0869 53.7498 12.1462 53.8128 12.2307 53.8146C12.3099 53.8128 12.3854 53.757 12.407 53.6688L14.565 43.2432L17.3147 42.9534L16.9263 53.1558C16.9263 53.2422 16.9856 53.3034 17.0648 53.307C17.1493 53.3034 17.2248 53.2422 17.2392 53.1612L19.3559 42.7392L22.2603 42.4332L18.543 58.8672L14.9103 59.2506ZM29.3171 57.735L26.5458 58.0266L26.6321 55.5408C26.6321 55.494 26.6159 55.458 26.5889 55.4292C26.5566 55.4004 26.5134 55.3896 26.472 55.3932L24.5046 55.6002C24.4309 55.6092 24.3661 55.6686 24.35 55.7442L23.8446 58.311L20.9996 58.6098L24.5154 42.1974L29.7631 41.6448L29.3171 57.735ZM36.4476 43.9056L34.8471 57.1518L31.8959 57.4632L33.4965 44.2548C33.5019 44.2098 33.4857 44.1648 33.4587 44.136C33.4281 44.1018 33.385 44.0892 33.3364 44.0946L31.5776 44.28L31.9229 41.418L38.7567 40.698L38.406 43.5618L36.6077 43.7508C36.5285 43.7598 36.4584 43.8246 36.4476 43.9056ZM44.1375 43.0128C44.0044 42.8022 43.776 42.714 43.4577 42.7482C43.1016 42.786 42.8354 42.9516 42.67 43.2414C42.5261 43.4898 42.4308 43.8192 42.3822 44.208L41.3788 52.506C41.3194 53.001 41.3518 53.343 41.4849 53.5482C41.6233 53.7678 41.8517 53.8668 42.1538 53.8344C42.4901 53.7984 42.7491 53.6328 42.92 53.3376C43.0746 53.073 43.1807 52.7418 43.2239 52.3476L43.5692 49.5072L46.5365 49.194L46.1804 52.1496C46.0096 53.5572 45.5366 54.6228 44.7651 55.3212C43.9936 56.0196 42.9685 56.4426 41.7132 56.574C40.5803 56.6928 39.7081 56.4336 39.1128 55.7982C38.5121 55.1646 38.2891 54.1872 38.4474 52.8984L39.3736 45.2538C39.5642 43.6842 40.0174 42.4404 40.7241 41.5512C41.4201 40.68 42.4632 40.1598 43.8299 40.0158C44.5745 39.9366 45.2291 40.0068 45.7704 40.221C46.3081 40.437 46.7055 40.7988 46.9663 41.3046C47.2325 41.814 47.3134 42.4926 47.2109 43.3332L46.8818 46.0494L43.9522 46.359L44.2238 44.0946C44.2921 43.5546 44.2597 43.2018 44.1375 43.0128ZM54.9115 55.0422L51.982 55.35L52.8703 48.0168C52.8757 47.9682 52.865 47.9286 52.8326 47.8944C52.8002 47.8656 52.7589 47.8476 52.7157 47.853L51.1745 48.015C51.0936 48.024 51.0252 48.0888 51.0144 48.1698L50.1206 55.5462L47.1911 55.854L49.1585 39.6036L52.0881 39.2958L51.3975 45.0378C51.3921 45.081 51.4029 45.1278 51.4335 45.1566C51.4604 45.1908 51.509 45.2016 51.5521 45.1962L53.0934 45.0342C53.1725 45.027 53.2426 44.9604 53.2534 44.8794L53.9494 39.0996L56.8789 38.7918L54.9115 55.0422Z" fill="var(--fill-0, #463D8A)"/>
<path id="Vector_24" d="M26.9612 44.4564C26.9342 44.433 26.8911 44.4168 26.8497 44.4204L26.7004 44.4366C26.6267 44.4438 26.5566 44.505 26.5458 44.5806L24.9039 53.073C24.8931 53.1216 24.9039 53.1684 24.9344 53.2026C24.9668 53.2368 25.01 53.253 25.0567 53.2476L26.5404 53.0928C26.6267 53.0838 26.7004 53.0064 26.7004 52.9218L27.0098 44.5698C27.0098 44.5266 26.9936 44.4852 26.9612 44.4564ZM25.6646 50.7636L25.2491 52.9092L25.6628 50.7618L26.0081 48.9888L25.6646 50.7636Z" fill="var(--fill-0, #463D8A)"/>
<path id="Vector_25" d="M12.8062 20.4066L12.5023 28.7568C12.4969 28.8432 12.4286 28.9188 12.344 28.9278L10.8604 29.0844C10.8118 29.0898 10.7633 29.0736 10.7381 29.0394C10.7057 29.0052 10.6949 28.9584 10.7003 28.9098L12.344 20.4174C12.3602 20.3472 12.4232 20.2806 12.5023 20.2734L12.6462 20.2572C12.6947 20.2536 12.7307 20.2698 12.763 20.2986C12.7954 20.322 12.8116 20.3634 12.8062 20.4066Z" fill="var(--fill-0, #463D8A)"/>
<path id="Vector_26" d="M21.9851 25.7112C21.8934 25.4916 21.665 25.2378 21.1021 25.2972L20.4961 25.362C20.4151 25.3692 20.3468 25.4412 20.3414 25.5222L19.7569 30.321C19.7515 30.3624 19.7677 30.4038 19.7929 30.4326C19.8199 30.4668 19.8576 30.4848 19.9008 30.4812C20.0429 30.4812 20.1562 30.4758 20.2407 30.4668C21.1597 30.3696 21.7082 29.8494 21.8143 28.953L22.0642 26.883C22.129 26.388 22.0966 25.992 21.9851 25.7112ZM20.2101 29.1852L20.0914 30.1626L20.2083 29.187L20.6399 25.6662L20.2101 29.1852Z" fill="var(--fill-0, #463D8A)"/>
<path id="Vector_27" d="M22.5372 19.1844C22.4041 19.0494 22.2081 18.9972 21.9419 19.0242L21.2568 19.0962C21.1758 19.1052 21.1075 19.17 21.0967 19.251L20.6561 22.9284C20.6489 22.977 20.6597 23.0184 20.6921 23.0526C20.7244 23.0814 20.7658 23.0976 20.809 23.0922L21.4798 23.022C21.9365 22.9752 22.1488 22.7124 22.2513 22.5C22.3736 22.2372 22.4581 21.924 22.5012 21.573L22.7027 19.908C22.7404 19.5786 22.6865 19.3338 22.5372 19.1844Z" fill="var(--fill-0, #463D8A)"/>
<path id="Vector_28" d="M48.9193 16.74C48.7862 16.605 48.6064 16.5492 48.3834 16.5726C47.9464 16.6194 47.3943 16.9164 47.2558 18.0702L46.2775 26.1468C46.2128 26.6958 46.2344 27.0774 46.3405 27.315C46.425 27.4986 46.6228 27.7128 47.058 27.666C47.6443 27.6048 48.0058 27.0342 48.1388 25.9722L49.1171 17.8848C49.1855 17.3178 49.1171 16.9488 48.9193 16.74ZM46.5671 26.46C46.5635 26.5122 46.5617 26.5608 46.5617 26.604C46.5617 26.5608 46.5617 26.5122 46.5635 26.4618C46.5689 26.3664 46.5742 26.2692 46.5904 26.1504C46.576 26.2692 46.5724 26.3664 46.5671 26.46ZM46.6552 27.198C46.6552 27.198 46.6534 27.1944 46.6534 27.1926C46.6552 27.1926 46.657 27.1962 46.657 27.198C46.6696 27.2196 46.6839 27.2412 46.7037 27.261C46.6839 27.2412 46.6678 27.2196 46.6552 27.198ZM47.6695 17.6058C47.6641 17.6238 47.6569 17.6436 47.6515 17.6616C47.6569 17.6436 47.6623 17.6238 47.6677 17.6058H47.6695C47.6749 17.586 47.6802 17.568 47.6856 17.55C47.6928 17.532 47.7 17.514 47.7072 17.496C47.7018 17.514 47.6946 17.532 47.6874 17.5518C47.682 17.568 47.6749 17.586 47.6695 17.6058ZM47.7234 17.4564V17.4528C47.7234 17.4528 47.7252 17.4474 47.727 17.4438C47.7306 17.4384 47.7324 17.4312 47.736 17.4258C47.7324 17.4348 47.7288 17.4456 47.7234 17.4564ZM48.4589 16.8966C48.4589 16.8966 48.4517 16.8966 48.4481 16.8948H48.4571C48.4805 16.8966 48.5021 16.8984 48.5237 16.9038C48.5021 16.9002 48.4805 16.8984 48.4589 16.8966ZM48.7431 17.064C48.7431 17.064 48.7323 17.046 48.7287 17.0388C48.7359 17.046 48.7395 17.0532 48.7449 17.0622C48.7485 17.0712 48.7521 17.0838 48.7557 17.0946C48.7521 17.0838 48.7467 17.073 48.7431 17.064Z" fill="var(--fill-0, #463D8A)"/>
<path id="Vector_29" d="M58.5082 16.0776C58.4381 15.903 58.2637 15.7032 57.8375 15.7482L57.0767 15.8292C56.9976 15.8364 56.9293 15.903 56.9185 15.984L56.5462 19.0512C56.5408 19.0998 56.5552 19.1412 56.5876 19.1754C56.6146 19.2042 56.6577 19.2204 56.7045 19.215L57.4922 19.1322C58.0353 19.0764 58.3806 18.4914 58.5082 17.4078C58.5928 16.7274 58.5928 16.2918 58.5082 16.0776ZM58.2529 16.479V16.4916C58.2529 16.4916 58.2529 16.4844 58.2511 16.4808H58.2529V16.479ZM58.2097 16.2198C58.2097 16.2198 58.2151 16.236 58.2205 16.245C58.2241 16.2612 58.2295 16.281 58.2331 16.3026C58.2277 16.281 58.2241 16.263 58.2187 16.2468C58.2151 16.2378 58.2133 16.227 58.2097 16.2198ZM58.2511 16.7904C58.2511 16.8012 58.2511 16.8102 58.2511 16.821C58.2511 16.821 58.2493 16.821 58.2493 16.8246C58.2511 16.8102 58.2511 16.7976 58.2511 16.785C58.2511 16.7832 58.2511 16.7814 58.2511 16.7796V16.7904ZM58.2529 16.7184V16.7526C58.2529 16.7526 58.2529 16.7562 58.2511 16.758C58.2511 16.7436 58.2511 16.731 58.2529 16.7184V16.6788C58.2529 16.6788 58.2547 16.659 58.2547 16.65C58.2547 16.6716 58.2547 16.695 58.2529 16.7184ZM58.2547 16.6068C58.2547 16.5834 58.2529 16.56 58.2529 16.5402V16.506H58.2547C58.2547 16.5348 58.2565 16.5654 58.2565 16.5996C58.2565 16.6014 58.2565 16.6032 58.2547 16.605V16.6068Z" fill="var(--fill-0, #463D8A)"/>
<path id="Vector_30" d="M67.5541 14.8536C67.394 14.6736 67.0757 14.607 66.5704 14.6592L66.2089 14.697C66.128 14.706 66.065 14.7762 66.0542 14.8572L64.7504 25.5978C64.7468 25.641 64.7612 25.6878 64.7882 25.7166C64.8205 25.749 64.8619 25.7616 64.9105 25.7562L65.4751 25.6968C66.1549 25.6248 66.5596 25.2324 66.6387 24.5628L67.6764 16.0182C67.7501 15.4026 67.7123 15.0336 67.5541 14.8536ZM66.6423 14.9724C66.6189 14.976 66.5973 14.976 66.5722 14.9778L66.6441 14.9706C66.6441 14.9706 66.6657 14.9706 66.6765 14.9706C66.6639 14.9706 66.6531 14.9724 66.6423 14.9724ZM67.3491 15.1578C67.3491 15.1578 67.3473 15.1542 67.3473 15.1524C67.3473 15.1542 67.3491 15.156 67.3509 15.1578C67.3509 15.1596 67.3526 15.1632 67.3526 15.1668C67.3508 15.1632 67.3491 15.1596 67.3491 15.1578Z" fill="var(--fill-0, #463D8A)"/>
<path id="Vector_31" d="M78.5187 46.5048C78.3803 46.4958 78.186 46.5048 77.9379 46.53C77.553 46.5714 77.2599 46.7046 77.0585 46.9332C76.857 47.1618 76.7563 47.4444 76.7563 47.7828C76.7563 47.9268 76.7815 48.0798 76.8301 48.2382C76.8786 48.3966 76.9272 48.5208 76.9721 48.6072C77.0189 48.6954 77.0818 48.8124 77.1646 48.9582C77.2473 49.104 77.3246 49.2444 77.3966 49.3812C77.4667 49.518 77.5027 49.671 77.5027 49.8366C77.5027 50.0706 77.3552 50.202 77.0621 50.2326C76.9829 50.2416 76.8894 50.238 76.7833 50.2218C76.6772 50.2056 76.6053 50.2002 76.5693 50.2038C76.5315 50.2074 76.5118 50.2398 76.5064 50.301L76.4128 50.9796C76.4128 51.0084 76.42 51.03 76.4326 51.0408C76.4452 51.0534 76.5171 51.0642 76.6448 51.0732C76.7725 51.0822 76.9434 51.0768 77.1574 51.0534C77.5908 51.0084 77.9145 50.8752 78.1267 50.6574C78.3389 50.4378 78.4468 50.148 78.4468 49.7826C78.4468 49.5324 78.3767 49.275 78.2382 49.0122C78.1914 48.9276 78.1105 48.7854 77.99 48.582C77.8713 48.3804 77.7868 48.2004 77.7382 48.0456C77.7023 47.9286 77.6843 47.8206 77.6843 47.7198C77.6843 47.619 77.7167 47.5398 77.7832 47.4804C77.8497 47.421 77.9397 47.385 78.0566 47.3724L78.4648 47.3472C78.5079 47.3418 78.5295 47.3076 78.5295 47.2392L78.6087 46.5876C78.6087 46.5354 78.5781 46.5066 78.5187 46.503V46.5048Z" fill="var(--fill-0, #463D8A)"/>
<path id="Vector_32" d="M75.8212 46.7892C75.6827 46.7802 75.4885 46.7892 75.2403 46.8144C74.8555 46.854 74.5623 46.989 74.3609 47.2176C74.1595 47.4462 74.0588 47.7288 74.0588 48.0672C74.0588 48.2112 74.084 48.3642 74.1325 48.5226C74.1829 48.681 74.2296 48.8052 74.2764 48.8916C74.3213 48.9798 74.3861 49.0968 74.4688 49.2426C74.5515 49.3884 74.6289 49.5288 74.699 49.6656C74.7709 49.8024 74.8051 49.9554 74.8051 50.121C74.8051 50.355 74.6576 50.4864 74.3645 50.517C74.2854 50.526 74.1919 50.5224 74.0858 50.5062C73.9796 50.49 73.9077 50.4846 73.8717 50.4882C73.834 50.4918 73.8142 50.5242 73.8088 50.5854L73.7153 51.264C73.7153 51.2928 73.7225 51.3144 73.7351 51.3252C73.7477 51.3378 73.8196 51.3486 73.9455 51.3576C74.0714 51.3666 74.244 51.3612 74.458 51.3378C74.8914 51.2928 75.2151 51.1596 75.4273 50.9418C75.6413 50.7222 75.7475 50.4324 75.7475 50.067C75.7475 49.8168 75.6773 49.5594 75.5388 49.2966C75.4921 49.212 75.4112 49.0698 75.2907 48.8664C75.172 48.6648 75.0874 48.4848 75.0389 48.33C75.0029 48.213 74.9849 48.105 74.9849 48.0042C74.9849 47.9034 75.0173 47.8242 75.0839 47.7648C75.1504 47.7054 75.2403 47.6694 75.3572 47.6568L75.7654 47.6316C75.8086 47.6262 75.8302 47.592 75.8302 47.5236L75.9093 46.872C75.9093 46.8198 75.8787 46.791 75.8194 46.7874L75.8212 46.7892Z" fill="var(--fill-0, #463D8A)"/>
<path id="Vector_33" d="M68.8885 48.8736C69.4424 48.5424 69.7193 48.0186 69.7193 47.3004C69.7193 46.9368 69.6204 46.6614 69.4226 46.4724C69.2248 46.2852 68.91 46.215 68.4766 46.26C68.2195 46.287 67.9479 46.3266 67.6638 46.377C67.3796 46.4274 67.2304 46.4598 67.2124 46.4778C67.1962 46.4958 67.1854 46.5264 67.18 46.5696L66.5596 52.0758C66.5596 52.1154 66.5865 52.137 66.6387 52.1352L67.4156 52.029C68.1493 51.9264 68.6852 51.6582 69.0215 51.2226C69.1816 51.0192 69.2985 50.796 69.374 50.5566C69.4496 50.319 69.4873 50.0688 69.4873 49.8114C69.4873 49.554 69.4352 49.3488 69.3291 49.194C69.223 49.0392 69.0755 48.933 68.8885 48.8736ZM68.3525 50.7222C68.1745 50.9598 67.9137 51.0984 67.5703 51.1344L67.7663 49.3524C67.7968 49.347 67.8616 49.3398 67.9605 49.329C68.1673 49.3074 68.3292 49.3434 68.4443 49.437C68.5594 49.5306 68.6169 49.662 68.6169 49.8312C68.6169 50.1876 68.5288 50.4846 68.3525 50.7222ZM67.8274 48.771L68.0109 47.0898C68.0738 47.0754 68.1601 47.0628 68.2716 47.052C68.6655 47.0106 68.8633 47.1816 68.8633 47.5632C68.8633 48.2922 68.518 48.6936 67.8274 48.771Z" fill="var(--fill-0, #463D8A)"/>
<path id="Vector_34" d="M72.8179 47.4336C72.6291 47.2104 72.3593 47.1168 72.005 47.1546C71.0879 47.25 70.5412 47.9106 70.3649 49.1346C70.3128 49.5 70.2858 49.8078 70.2858 50.0526C70.2858 50.2974 70.2966 50.4918 70.3164 50.6304C70.3379 50.769 70.3757 50.9076 70.4333 51.0444C70.489 51.1812 70.5627 51.2964 70.6527 51.39C70.7426 51.4818 70.8631 51.5538 71.0123 51.6024C71.1616 51.6528 71.3702 51.6636 71.64 51.6348C71.9097 51.606 72.1903 51.534 72.4816 51.4188C72.5122 51.4044 72.5338 51.39 72.5446 51.3792C72.5553 51.3666 72.5625 51.3432 72.5643 51.3054L72.6363 50.6628C72.6363 50.6286 72.6255 50.6034 72.6039 50.5854C72.5823 50.5692 72.5571 50.562 72.5284 50.5656C72.4996 50.5692 72.4025 50.607 72.2388 50.6808C72.0734 50.7546 71.8935 50.8014 71.7011 50.823C71.5087 50.8428 71.3648 50.778 71.2695 50.6286C71.176 50.4792 71.1274 50.2686 71.1274 49.9968C71.1274 49.9374 71.1292 49.8888 71.131 49.851L72.915 49.6026C72.9834 49.5936 73.0193 49.5558 73.0265 49.4892C73.0751 49.1184 73.0984 48.7386 73.0984 48.3516C73.0984 47.9646 73.0049 47.6568 72.8179 47.4336ZM72.2065 48.9942C72.1957 49.0068 72.1687 49.0176 72.1273 49.0248L71.185 49.1706L71.2174 48.9366C71.2947 48.4704 71.4188 48.1752 71.5896 48.051C71.6669 47.997 71.7712 47.9628 71.9061 47.9484C72.0392 47.934 72.1327 48.0024 72.1885 48.15C72.2154 48.2166 72.2334 48.2832 72.246 48.348C72.255 48.4146 72.2622 48.528 72.2622 48.69C72.2622 48.852 72.2442 48.9546 72.2065 48.9942Z" fill="var(--fill-0, #463D8A)"/>
<path id="Vector_35" d="M106.309 43.911C106.12 43.686 105.85 43.5942 105.496 43.6302C104.579 43.7274 104.032 44.388 103.856 45.6102C103.804 45.9774 103.777 46.2834 103.777 46.53C103.777 46.7766 103.788 46.9674 103.807 47.106C103.827 47.2446 103.867 47.3832 103.923 47.5218C103.98 47.6586 104.052 47.7738 104.144 47.8656C104.234 47.9592 104.352 48.0312 104.503 48.0798C104.653 48.1302 104.861 48.1392 105.131 48.1122C105.401 48.0834 105.681 48.0114 105.973 47.8962C106.003 47.8818 106.025 47.8674 106.036 47.8548C106.046 47.844 106.054 47.8188 106.055 47.7828L106.127 47.1384C106.127 47.106 106.117 47.079 106.095 47.0628C106.073 47.0466 106.048 47.0394 106.019 47.043C105.991 47.0448 105.894 47.0844 105.728 47.1582C105.564 47.232 105.385 47.2788 105.192 47.2986C105 47.3202 104.856 47.2554 104.761 47.106C104.665 46.9566 104.619 46.746 104.619 46.4742C104.619 46.413 104.62 46.3644 104.622 46.3284L106.406 46.08C106.473 46.071 106.51 46.0332 106.518 45.9666C106.566 45.5958 106.59 45.216 106.59 44.8272C106.59 44.4384 106.496 44.1342 106.309 43.911ZM105.698 45.4716C105.687 45.4842 105.66 45.495 105.618 45.5004L104.676 45.648L104.708 45.4122C104.786 44.946 104.91 44.6508 105.081 44.5266C105.158 44.4744 105.262 44.4402 105.397 44.4258C105.53 44.4114 105.626 44.478 105.68 44.6274C105.707 44.694 105.725 44.7606 105.735 44.8254C105.746 44.8902 105.751 45.0036 105.751 45.1674C105.751 45.3312 105.734 45.432 105.698 45.4716Z" fill="var(--fill-0, #463D8A)"/>
<path id="Vector_36" d="M91.253 45.1296C90.9131 45.1656 90.5624 45.36 90.2028 45.7146C90.0733 45.4122 89.8449 45.279 89.5176 45.3132C89.1903 45.3474 88.8504 45.5382 88.4979 45.8838L88.5375 45.5436C88.5375 45.4842 88.5051 45.4554 88.4404 45.459L87.7354 45.558C87.685 45.5688 87.6545 45.5994 87.6455 45.6534L87.1689 49.9068C87.1689 49.9482 87.1959 49.968 87.248 49.9662L87.9782 49.86C88.0285 49.8492 88.0591 49.815 88.0681 49.752L88.4511 46.3176C88.6058 46.2402 88.7551 46.1952 88.8971 46.1808C89.041 46.1664 89.1579 46.1898 89.2514 46.251C89.3431 46.3122 89.3899 46.4418 89.3899 46.6398C89.3899 46.6902 89.3863 46.7478 89.3791 46.8108L89.05 49.7088C89.05 49.7502 89.077 49.77 89.1291 49.7682L89.8593 49.6656C89.9096 49.6548 89.9402 49.6206 89.9492 49.5576L90.2963 46.4922C90.3035 46.4256 90.3071 46.3608 90.3071 46.2942C90.3071 46.2276 90.3035 46.1664 90.2963 46.1088C90.433 46.044 90.5714 46.0044 90.7099 45.9882C90.8484 45.9738 90.9653 45.9972 91.0588 46.0584C91.1523 46.1196 91.1991 46.2492 91.1991 46.4472C91.1991 46.4778 91.1937 46.5354 91.1847 46.6182L90.8556 49.5162C90.8556 49.5576 90.8825 49.5774 90.9347 49.5756L91.6648 49.473C91.7152 49.4622 91.7458 49.428 91.7548 49.365L92.1018 46.2996C92.109 46.233 92.1126 46.1484 92.1126 46.0422C92.1126 45.936 92.0965 45.8244 92.0623 45.7038C91.9418 45.2736 91.672 45.0792 91.253 45.1242V45.1296Z" fill="var(--fill-0, #463D8A)"/>
<path id="Vector_37" d="M109.613 43.1982C109.294 43.2324 108.963 43.4196 108.616 43.7616L108.656 43.425C108.656 43.3656 108.623 43.3368 108.559 43.3404L107.85 43.4412C107.8 43.452 107.769 43.4826 107.76 43.5366L107.284 47.79C107.284 47.8314 107.311 47.8512 107.363 47.8494L108.093 47.7468C108.143 47.736 108.174 47.7018 108.183 47.6388L108.57 44.2008C108.724 44.1234 108.872 44.0784 109.014 44.064C109.156 44.0496 109.273 44.073 109.366 44.1342C109.46 44.1954 109.505 44.325 109.505 44.523C109.505 44.5734 109.501 44.631 109.494 44.694L109.165 47.592C109.165 47.6334 109.192 47.6532 109.244 47.6514L109.974 47.5488C110.024 47.538 110.055 47.5038 110.064 47.4408L110.411 44.3754C110.418 44.3088 110.422 44.2224 110.422 44.1162C110.422 44.01 110.407 43.8966 110.379 43.7796C110.273 43.3476 110.017 43.1514 109.613 43.1946V43.1982Z" fill="var(--fill-0, #463D8A)"/>
<path id="Vector_38" d="M95.936 44.6688L95.2292 44.7696C95.1735 44.7786 95.1429 44.811 95.1393 44.865L95.0961 45.36C95.0152 45.1602 94.9163 45.0126 94.7994 44.9172C94.6807 44.8218 94.5099 44.7858 94.2869 44.8092C93.9847 44.8416 93.7366 44.9856 93.5387 45.243C93.4524 45.3546 93.3751 45.4932 93.3068 45.6534C93.2384 45.8154 93.1827 45.972 93.1413 46.1214C93.0999 46.2708 93.0532 46.4886 92.9992 46.7748C92.9453 47.0592 92.9183 47.403 92.9183 47.8044C92.9183 48.2058 92.9597 48.5172 93.0442 48.7386C93.0891 48.8646 93.1485 48.9708 93.2222 49.0554C93.296 49.14 93.3913 49.2048 93.5064 49.2498C93.6215 49.2948 93.7617 49.3074 93.9254 49.2912C94.089 49.2732 94.2365 49.2066 94.3678 49.0914C94.4991 48.9762 94.6196 48.8196 94.7311 48.6198L94.6627 49.1184C94.6627 49.1598 94.6879 49.1796 94.7382 49.1796L95.4666 49.077C95.5223 49.0698 95.5547 49.0338 95.5619 48.969L96.0313 44.7534C96.0313 44.6958 95.9989 44.667 95.936 44.6688ZM94.8372 47.43C94.776 47.8098 94.7023 48.0672 94.6178 48.2004C94.535 48.3336 94.4253 48.4056 94.2905 48.42C93.9811 48.4524 93.8283 48.1806 93.8283 47.6046C93.8283 47.2392 93.875 46.8288 93.9686 46.377C94.0135 46.1646 94.0783 45.9918 94.161 45.8586C94.2419 45.7254 94.3534 45.6534 94.4919 45.6372C94.6321 45.6228 94.7329 45.6642 94.7958 45.7614C94.8264 45.8118 94.8515 45.8604 94.8713 45.9108C94.8911 45.9612 94.9037 46.0224 94.9109 46.098C94.9181 46.1736 94.9235 46.233 94.9253 46.278C94.9289 46.3248 94.9289 46.4328 94.9289 46.6038C94.9289 46.7748 94.8983 47.0502 94.8372 47.43Z" fill="var(--fill-0, #463D8A)"/>
<path id="Vector_39" d="M85.3274 45.7704C85.25 45.7668 85.1385 45.7704 84.9929 45.7866C84.8472 45.8028 84.7015 45.8622 84.5577 45.9648C84.4138 46.0674 84.2645 46.206 84.1099 46.3788L84.153 46.0026C84.153 45.9432 84.1207 45.9144 84.0559 45.918L83.351 46.017C83.3006 46.0278 83.27 46.0584 83.2611 46.1124L82.7845 50.3658C82.7845 50.4072 82.8115 50.427 82.8636 50.4252L83.5937 50.319C83.6441 50.3082 83.6747 50.274 83.6837 50.211L84.0415 46.9854C84.2538 46.8378 84.5163 46.7478 84.8292 46.7154H85.2159C85.2734 46.7082 85.3076 46.674 85.3202 46.6092C85.3759 46.2762 85.4029 46.026 85.4029 45.8604C85.4029 45.8028 85.3777 45.7722 85.3274 45.7668V45.7704Z" fill="var(--fill-0, #463D8A)"/>
<path id="Vector_40" d="M99.2234 44.4024C98.9914 44.352 98.736 44.3412 98.4573 44.37C98.0401 44.4132 97.7056 44.5608 97.4538 44.8092C97.3387 44.9226 97.238 45.0612 97.1499 45.2268C97.0636 45.3906 96.9934 45.5598 96.9413 45.7344C96.8891 45.909 96.8405 46.1322 96.7938 46.4058C96.747 46.6794 96.7237 46.998 96.7237 47.3598C96.7237 47.7216 96.7704 48.024 96.8639 48.2616C96.9161 48.4002 96.9862 48.5172 97.0743 48.6108C97.1607 48.7044 97.2776 48.7764 97.4268 48.825C97.5743 48.8754 97.7775 48.8862 98.0347 48.8592C98.29 48.8322 98.5652 48.7602 98.8565 48.6468C98.8781 48.6342 98.8961 48.6234 98.9087 48.6144C98.9213 48.6036 98.9303 48.5784 98.9357 48.5334L99.0112 47.889C99.0112 47.817 98.968 47.7846 98.8853 47.7936C98.8439 47.7972 98.7558 47.835 98.6173 47.907C98.4807 47.979 98.3008 48.0258 98.0796 48.0492C97.7739 48.0816 97.621 47.8008 97.621 47.2086C97.621 46.8396 97.6732 46.4274 97.7757 45.9702C97.8315 45.7254 97.9052 45.5346 97.9951 45.3978C98.0868 45.261 98.2091 45.1836 98.3638 45.1674C98.5184 45.1512 98.7109 45.1818 98.9446 45.261C99.0004 45.279 99.0579 45.2844 99.1191 45.279C99.1802 45.2718 99.2144 45.2448 99.218 45.1962L99.3007 44.5338C99.3007 44.4618 99.2737 44.4186 99.2216 44.4042L99.2234 44.4024Z" fill="var(--fill-0, #463D8A)"/>
<path id="Vector_41" d="M81.8098 46.4868C81.6209 46.2636 81.3512 46.17 80.9969 46.2078C80.0797 46.305 79.533 46.9638 79.3568 48.1878C79.3046 48.555 79.2777 48.861 79.2777 49.1076C79.2777 49.3542 79.2884 49.545 79.3082 49.6836C79.3298 49.8222 79.3676 49.9608 79.4251 50.0976C79.4809 50.2362 79.5546 50.3514 79.6445 50.4432C79.7344 50.5368 79.8549 50.607 80.0042 50.6574C80.1535 50.706 80.3621 50.7168 80.6318 50.688C80.9016 50.661 81.1821 50.589 81.4735 50.4738C81.504 50.4576 81.5256 50.445 81.5364 50.4324C81.5472 50.4216 81.5544 50.3964 81.5562 50.3604L81.6281 49.716C81.6281 49.6818 81.6191 49.6566 81.5958 49.6404C81.5742 49.6224 81.549 49.617 81.5202 49.6188C81.4915 49.6224 81.3943 49.6602 81.2289 49.734C81.0652 49.8096 80.8854 49.8564 80.693 49.8762C80.5006 49.896 80.3567 49.8312 80.2614 49.6836C80.1679 49.5342 80.1193 49.3236 80.1193 49.0518C80.1193 48.9906 80.1211 48.942 80.1229 48.906L81.9069 48.6576C81.9752 48.6468 82.0112 48.6108 82.0184 48.5442C82.0669 48.1734 82.0903 47.7936 82.0903 47.4048C82.0903 47.016 81.9968 46.7118 81.8098 46.4868ZM81.2001 48.0474C81.1875 48.0618 81.1606 48.0708 81.1192 48.078L80.1768 48.2238L80.2092 47.9898C80.2865 47.5236 80.4106 47.2284 80.5815 47.1042C80.6588 47.0502 80.7631 47.0178 80.898 47.0034C81.0311 46.989 81.1264 47.0556 81.1803 47.205C81.2073 47.2716 81.2271 47.3382 81.2379 47.403C81.2487 47.4678 81.2541 47.5812 81.2541 47.745C81.2541 47.9088 81.2361 48.0078 81.2001 48.0474Z" fill="var(--fill-0, #463D8A)"/>
<path id="Vector_42" d="M111.727 46.2834C111.569 46.2996 111.427 46.377 111.301 46.512C111.175 46.6488 111.112 46.7946 111.112 46.9494C111.112 47.1042 111.159 47.2284 111.255 47.3166C111.35 47.4066 111.476 47.4444 111.634 47.4264C111.79 47.4102 111.934 47.3328 112.062 47.1978C112.19 47.061 112.253 46.9152 112.253 46.7586C112.253 46.602 112.204 46.4796 112.109 46.3896C112.013 46.3014 111.886 46.2654 111.727 46.2816V46.2834Z" fill="var(--fill-0, #463D8A)"/>
<path id="Vector_43" d="M102.162 43.9812C101.826 44.0172 101.493 44.19 101.169 44.4978L101.398 42.4458C101.398 42.3882 101.367 42.3594 101.304 42.3576L100.596 42.4566C100.561 42.4638 100.54 42.4728 100.529 42.489C100.518 42.5052 100.511 42.5304 100.506 42.5628L99.833 48.573C99.833 48.6144 99.86 48.6342 99.9122 48.6324L100.642 48.5298C100.693 48.519 100.723 48.4848 100.732 48.4218L101.115 44.9838C101.27 44.9064 101.417 44.8614 101.561 44.847C101.705 44.8326 101.822 44.856 101.916 44.9172C102.007 44.9784 102.054 45.108 102.054 45.306C102.054 45.3564 102.05 45.414 102.043 45.477L101.714 48.375C101.714 48.4164 101.741 48.4362 101.793 48.4344L102.523 48.3318C102.574 48.321 102.604 48.2868 102.613 48.2238L102.96 45.1584C102.968 45.0918 102.971 45.0054 102.971 44.8992C102.971 44.793 102.957 44.6796 102.928 44.5626C102.822 44.1306 102.567 43.9344 102.162 43.9776V43.9812Z" fill="var(--fill-0, #463D8A)"/>
<path id="Vector_44" d="M97.1894 35.2602C97.3387 35.244 97.4754 35.172 97.5977 35.0424C97.72 34.9128 97.7811 34.7742 97.7811 34.6248C97.7811 34.4754 97.7343 34.3602 97.6426 34.2756C97.5491 34.191 97.4286 34.1568 97.2794 34.173C97.1301 34.1892 96.9952 34.2612 96.8765 34.3908C96.7578 34.5204 96.6985 34.659 96.6985 34.8066C96.6985 34.9542 96.7434 35.0712 96.8316 35.1558C96.9215 35.2404 97.0402 35.2746 97.1894 35.2584V35.2602Z" fill="var(--fill-0, #463D8A)"/>
<path id="Vector_45" d="M97.0959 39.9978C97.1085 39.9816 97.1157 39.9564 97.1211 39.9222L97.5905 35.7048C97.5905 35.6472 97.5581 35.6202 97.4934 35.622L96.7884 35.721C96.7381 35.7318 96.7075 35.7624 96.6985 35.8164L96.2219 40.0698C96.2219 40.1112 96.2489 40.131 96.301 40.1292L97.0276 40.0284C97.0618 40.023 97.0833 40.0122 97.0959 39.996V39.9978Z" fill="var(--fill-0, #463D8A)"/>
<path id="Vector_46" d="M102.288 39.528C102.446 39.5118 102.588 39.4344 102.716 39.2994C102.844 39.1626 102.906 39.0168 102.906 38.8602C102.906 38.7036 102.858 38.5812 102.763 38.493C102.665 38.4048 102.54 38.3688 102.381 38.385C102.223 38.4012 102.083 38.4786 101.955 38.6136C101.829 38.7504 101.765 38.8962 101.765 39.051C101.765 39.2058 101.813 39.33 101.908 39.4182C102.004 39.5082 102.13 39.546 102.288 39.528Z" fill="var(--fill-0, #463D8A)"/>
<path id="Vector_47" d="M100.815 35.6058C100.628 35.3808 100.356 35.289 100.004 35.325C99.0849 35.4222 98.54 36.0828 98.3638 37.305C98.3098 37.6722 98.2847 37.9782 98.2847 38.2248C98.2847 38.4714 98.2936 38.6622 98.3152 38.8008C98.335 38.9412 98.3746 39.078 98.4303 39.2166C98.4879 39.3534 98.5598 39.4686 98.6515 39.5604C98.7414 39.654 98.8601 39.726 99.0094 39.7746C99.1587 39.8232 99.3691 39.834 99.6388 39.807C99.9086 39.7782 100.189 39.7062 100.48 39.591C100.511 39.5766 100.533 39.5622 100.543 39.5496C100.554 39.5388 100.56 39.5136 100.563 39.4776L100.635 38.8332C100.635 38.8008 100.624 38.7738 100.603 38.7576C100.581 38.7414 100.556 38.7342 100.527 38.7378C100.498 38.7396 100.401 38.7792 100.236 38.853C100.07 38.9268 99.8924 38.9736 99.7 38.9934C99.5076 39.0132 99.3637 38.9502 99.2684 38.8008C99.1731 38.6514 99.1245 38.4408 99.1245 38.169C99.1245 38.1078 99.1263 38.0592 99.1299 38.0232L100.912 37.7748C100.98 37.764 101.018 37.728 101.025 37.6614C101.072 37.2906 101.097 36.9108 101.097 36.522C101.097 36.1332 101.004 35.829 100.815 35.6058ZM100.205 37.1664C100.193 37.179 100.166 37.1898 100.126 37.1952L99.1838 37.3428L99.2162 37.107C99.2935 36.6408 99.4176 36.3456 99.5867 36.2232C99.664 36.1692 99.7701 36.135 99.9032 36.1206C100.038 36.1062 100.132 36.1728 100.187 36.3222C100.214 36.3888 100.232 36.4554 100.243 36.5202C100.254 36.585 100.259 36.6984 100.259 36.8622C100.259 37.026 100.241 37.1268 100.205 37.1664Z" fill="var(--fill-0, #463D8A)"/>
<path id="Vector_48" d="M86.2985 36.7992L85.5504 36.9036C85.5 36.9108 85.4605 36.945 85.4317 37.0062L84.4714 39.0006L84.8832 35.2998C84.8832 35.2422 84.8508 35.2134 84.7897 35.2116L84.0811 35.3124C84.0469 35.3178 84.0254 35.3286 84.0128 35.3448C84.0002 35.361 83.993 35.3862 83.9876 35.4204L83.3186 41.4288C83.3186 41.4702 83.3456 41.49 83.3977 41.4882L84.1243 41.3874C84.1584 41.382 84.18 41.3712 84.1926 41.355C84.2052 41.3388 84.2124 41.3136 84.2178 41.2794L84.4444 39.231L85.1817 41.2326C85.1979 41.274 85.2249 41.2938 85.2608 41.292L86.0305 41.1858C86.0953 41.1786 86.1277 41.1534 86.1277 41.1102C86.1277 41.0976 86.1241 41.0832 86.1169 41.0688L85.2932 38.9358L86.3722 36.9468C86.3812 36.9234 86.3866 36.9 86.3866 36.873C86.3866 36.8244 86.356 36.801 86.2967 36.7992H86.2985Z" fill="var(--fill-0, #463D8A)"/>
<path id="Vector_49" d="M78.0458 37.6362C77.7059 37.6722 77.3552 37.8666 76.9955 38.2194C76.866 37.917 76.6376 37.7838 76.3103 37.818C75.9848 37.8522 75.6431 38.043 75.2907 38.3886L75.3302 38.0484C75.3302 37.989 75.2978 37.9602 75.2331 37.9656L74.5281 38.0646C74.4778 38.0754 74.4472 38.106 74.4382 38.16L73.9617 42.4134C73.9617 42.4548 73.9886 42.4746 74.0408 42.4728L74.7709 42.3666C74.8213 42.3558 74.8518 42.3216 74.8608 42.2604L75.2439 38.826C75.3968 38.7486 75.546 38.7036 75.6899 38.6892C75.8338 38.6748 75.9507 38.6964 76.0442 38.7594C76.1359 38.8206 76.1826 38.9502 76.1826 39.1482C76.1826 39.1986 76.179 39.2562 76.1719 39.3192L75.8428 42.2172C75.8428 42.2586 75.8697 42.2784 75.9219 42.2766L76.652 42.174C76.7024 42.1632 76.733 42.129 76.7419 42.066L77.089 39.0006C77.0962 38.934 77.0998 38.8692 77.0998 38.8026C77.0998 38.736 77.0962 38.6748 77.089 38.6172C77.2257 38.5524 77.3642 38.5128 77.5027 38.4984C77.6411 38.484 77.758 38.5074 77.8515 38.5686C77.9451 38.6298 77.9918 38.7594 77.9918 38.9574C77.9918 38.988 77.9864 39.0456 77.9774 39.1284L77.6483 42.0264C77.6483 42.0678 77.6753 42.0876 77.7274 42.0858L78.4576 41.9832C78.5079 41.9724 78.5385 41.9382 78.5475 41.8752L78.8946 38.8098C78.9018 38.7432 78.9054 38.6586 78.9054 38.5524C78.9054 38.4462 78.8892 38.3328 78.855 38.214C78.7345 37.7838 78.4648 37.5894 78.0458 37.6344V37.6362Z" fill="var(--fill-0, #463D8A)"/>
<path id="Vector_50" d="M82.4842 37.8054C82.3133 37.3986 81.9392 37.2258 81.362 37.287C80.9555 37.3302 80.6318 37.4796 80.3944 37.7352C80.2847 37.8504 80.1912 37.9926 80.1121 38.1618C80.033 38.3292 79.9718 38.5002 79.9287 38.6712C79.8855 38.844 79.8387 39.1176 79.7866 39.4902C79.7362 39.8646 79.7111 40.167 79.7111 40.3956C79.7111 40.887 79.81 41.2506 80.0096 41.4864C80.2074 41.7222 80.5203 41.8176 80.9483 41.7726C81.3764 41.7276 81.7091 41.5782 81.9464 41.3244C82.0543 41.2092 82.1479 41.0688 82.227 40.9014C82.3043 40.7358 82.3655 40.5684 82.4086 40.3992C82.4518 40.23 82.4985 39.969 82.5489 39.6198C82.5974 39.2706 82.6226 38.934 82.6226 38.6118C82.6226 38.2896 82.5759 38.0214 82.4842 37.8054ZM81.6893 39.393C81.6461 39.7494 81.6119 39.9924 81.585 40.122C81.5328 40.4334 81.4591 40.662 81.3674 40.8042C81.2738 40.9482 81.1588 41.0274 81.0185 41.0418C80.7253 41.0724 80.5779 40.8924 80.5779 40.5018C80.5779 40.1112 80.6336 39.5982 80.7451 38.961C80.7991 38.646 80.8728 38.4174 80.9627 38.2752C81.0526 38.133 81.1677 38.0556 81.308 38.0412C81.6047 38.0088 81.7522 38.1978 81.7522 38.6082C81.7522 38.7774 81.7306 39.0384 81.6893 39.393Z" fill="var(--fill-0, #463D8A)"/>
<path id="Vector_51" d="M72.9869 38.5326C72.7999 38.3094 72.5284 38.2158 72.1741 38.2536C71.2569 38.349 70.7102 39.0096 70.5358 40.2336C70.4818 40.6008 70.4548 40.9068 70.4548 41.1516C70.4548 41.3964 70.4656 41.5908 70.4872 41.7294C70.507 41.868 70.5448 42.0066 70.6023 42.1434C70.6581 42.2802 70.7318 42.3954 70.8217 42.489C70.9134 42.5808 71.0321 42.6528 71.1814 42.7014C71.3306 42.7518 71.5411 42.7626 71.8108 42.7338C72.0788 42.705 72.3593 42.633 72.6524 42.5178C72.683 42.5034 72.7028 42.489 72.7154 42.4782C72.7244 42.4656 72.7316 42.4422 72.7352 42.4044L72.8071 41.7618C72.8071 41.7276 72.7963 41.7024 72.7747 41.6844C72.7532 41.6682 72.7262 41.661 72.6992 41.6646C72.6704 41.6682 72.5733 41.706 72.4079 41.7798C72.2424 41.8536 72.0644 41.9004 71.872 41.922C71.6795 41.9418 71.5357 41.877 71.4403 41.7276C71.345 41.58 71.2965 41.3676 71.2965 41.0958C71.2965 41.0364 71.2983 40.9878 71.3001 40.9518L73.0841 40.7016C73.1524 40.6926 73.1902 40.6548 73.1974 40.5882C73.2441 40.2174 73.2693 39.8376 73.2693 39.4506C73.2693 39.0636 73.1758 38.7558 72.9869 38.5326ZM72.3773 40.0932C72.3647 40.1058 72.3377 40.1166 72.2982 40.1238L71.3558 40.2696L71.3882 40.0356C71.4655 39.5694 71.5878 39.2742 71.7587 39.15C71.836 39.096 71.9421 39.0618 72.0752 39.0474C72.21 39.033 72.3036 39.1014 72.3593 39.249C72.3845 39.3156 72.4043 39.3822 72.4151 39.447C72.4259 39.5136 72.4312 39.627 72.4312 39.789C72.4312 39.951 72.4133 40.0536 72.3773 40.0932Z" fill="var(--fill-0, #463D8A)"/>
<path id="Vector_52" d="M69.4549 37.6236C69.2391 37.413 68.928 37.3302 68.5252 37.3716C68.1224 37.4148 67.8058 37.458 67.5738 37.5048C67.3437 37.5498 67.2214 37.5804 67.2088 37.593C67.198 37.6074 67.189 37.629 67.1836 37.6578L66.5596 43.1928C66.5596 43.236 66.5865 43.2558 66.6387 43.2522L67.5379 43.1262C67.7986 43.0884 68.018 43.0452 68.1997 42.9948C68.5989 42.8778 68.8921 42.6906 69.0809 42.435C69.2841 42.156 69.4316 41.7474 69.5233 41.211C69.6941 40.1976 69.7804 39.3084 69.7804 38.5452C69.7804 38.1402 69.6725 37.8324 69.4549 37.6236ZM68.7716 40.0536C68.7176 40.5846 68.6619 41.004 68.6061 41.3136C68.5504 41.6232 68.4551 41.8392 68.3166 41.9634C68.1781 42.0858 67.9281 42.1812 67.5703 42.2514L68.0109 38.268C68.0486 38.2572 68.1511 38.2428 68.3166 38.2248C68.4802 38.2086 68.6115 38.2428 68.7086 38.3292C68.8039 38.4156 68.8525 38.556 68.8525 38.754C68.8525 39.0888 68.8255 39.5226 68.7716 40.0536Z" fill="var(--fill-0, #463D8A)"/>
<path id="Vector_53" d="M94.9756 35.0226L94.2851 35.1216C94.2509 35.127 94.2257 35.1396 94.2095 35.1612C94.1933 35.181 94.1574 35.4582 94.1016 35.9946L93.7581 36.0414C93.7024 36.0504 93.6718 36.081 93.6646 36.1386L93.5675 36.7308C93.5675 36.7884 93.5981 36.8154 93.6574 36.8118L94.0117 36.7596C93.8211 38.178 93.7258 39.0564 93.7258 39.3984C93.7258 39.7404 93.8157 39.9888 93.9937 40.1418C94.1718 40.2966 94.4469 40.3524 94.8174 40.3146C95.071 40.2876 95.249 40.257 95.3533 40.221C95.4576 40.185 95.517 40.1598 95.5295 40.1418C95.5421 40.1238 95.5529 40.0968 95.5565 40.059L95.6321 39.4182C95.6321 39.3552 95.6069 39.3264 95.5565 39.3318C95.5277 39.3354 95.4558 39.3624 95.3407 39.4128C95.2256 39.4632 95.1069 39.4956 94.9828 39.5082C94.7418 39.5334 94.6214 39.4056 94.6214 39.123C94.6214 38.9718 94.7041 38.1492 94.8677 36.657L95.695 36.5382C95.7453 36.531 95.7759 36.4968 95.7849 36.4374L95.8856 35.8524C95.8856 35.7912 95.8568 35.7642 95.7993 35.7678L94.9577 35.8848C94.9882 35.6364 95.0278 35.3754 95.0727 35.1018C95.0727 35.046 95.0404 35.0208 94.9756 35.0226Z" fill="var(--fill-0, #463D8A)"/>
<path id="Vector_54" d="M92.8356 36.1116L92.127 36.2124C92.0713 36.2232 92.0407 36.2538 92.0371 36.3078L91.9939 36.8046C91.913 36.603 91.8141 36.4554 91.6972 36.36C91.5785 36.2646 91.4077 36.2304 91.1847 36.2538C90.8844 36.2844 90.6344 36.4284 90.4366 36.6858C90.3502 36.7992 90.2729 36.936 90.2046 37.098C90.1362 37.2582 90.0805 37.4148 90.0391 37.5642C89.9996 37.7154 89.951 37.9332 89.897 38.2176C89.8431 38.502 89.8161 38.8458 89.8161 39.2472C89.8161 39.6486 89.8575 39.96 89.942 40.1832C89.987 40.3074 90.0481 40.4136 90.12 40.4982C90.1938 40.5828 90.2891 40.6476 90.4042 40.6926C90.5193 40.7376 90.6596 40.7502 90.8232 40.734C90.9869 40.716 91.1343 40.6494 91.2656 40.536C91.3969 40.4208 91.5174 40.2624 91.6289 40.0626L91.5605 40.5612C91.5605 40.6026 91.5857 40.6224 91.6361 40.6224L92.3662 40.5198C92.4202 40.5126 92.4525 40.4766 92.4597 40.4136L92.9291 36.1962C92.9291 36.1386 92.8967 36.1098 92.8356 36.1116ZM91.735 38.8746C91.6738 39.2544 91.6019 39.51 91.5156 39.6432C91.4329 39.7764 91.3232 39.8502 91.1883 39.8628C90.8808 39.8952 90.7261 39.6252 90.7261 39.0492C90.7261 38.682 90.7728 38.2716 90.8664 37.8198C90.9113 37.6074 90.9761 37.4346 91.0588 37.3014C91.1397 37.17 91.2512 37.0962 91.3897 37.0818C91.53 37.0656 91.6307 37.107 91.6936 37.2042C91.7242 37.2546 91.7494 37.3032 91.7692 37.3536C91.7889 37.404 91.8015 37.4652 91.8087 37.5408C91.8159 37.6164 91.8213 37.6758 91.8231 37.7226C91.8267 37.7676 91.8267 37.8756 91.8267 38.0466C91.8267 38.2176 91.7961 38.493 91.735 38.8746Z" fill="var(--fill-0, #463D8A)"/>
<path id="Vector_55" d="M87.757 40.905L88.1148 37.6794C88.3271 37.5318 88.5896 37.4418 88.9025 37.4094H89.2892C89.3467 37.4022 89.3827 37.368 89.3935 37.3032C89.4492 36.9702 89.4762 36.72 89.4762 36.5544C89.4762 36.4968 89.451 36.4662 89.4007 36.4608C89.3234 36.4572 89.2119 36.4626 89.0662 36.4788C88.9205 36.495 88.7749 36.5526 88.631 36.657C88.4871 36.7614 88.3378 36.8982 88.1832 37.071L88.2263 36.6948C88.2263 36.6354 88.194 36.6066 88.1292 36.612L87.4243 36.711C87.3739 36.7218 87.3433 36.7524 87.3344 36.8064L86.8578 41.0598C86.8578 41.1012 86.8848 41.121 86.9369 41.1192L87.6671 41.013C87.7174 41.0022 87.748 40.968 87.757 40.9068V40.905Z" fill="var(--fill-0, #463D8A)"/>
<g id="AW_Logo_Full_Logo_ohneClaim 1">
<path id="Vector_56" d="M20.1414 30.1626L20.2604 29.1852L20.6913 25.6662L20.2586 29.187L20.1414 30.1626Z" fill="var(--fill-0, #463D8A)"/>
<path id="Vector_57" d="M21.6882 25.776C21.6954 25.7868 21.7063 25.7976 21.7117 25.8084C21.7207 25.8264 21.7333 25.8426 21.7405 25.8588C21.7351 25.8444 21.7189 25.8246 21.7135 25.8084C21.7063 25.7976 21.6954 25.7868 21.6882 25.776Z" fill="var(--fill-0, #463D8A)"/>
<path id="Vector_58" d="M22.44 19.9044C22.4544 19.7946 22.4544 19.7028 22.4418 19.6272C22.4526 19.7046 22.4544 19.7946 22.44 19.9044Z" fill="var(--fill-0, #463D8A)"/>
<path id="Vector_59" d="M22.4364 19.5948C22.4256 19.5174 22.4004 19.4598 22.3589 19.4184C22.3968 19.4598 22.422 19.521 22.4364 19.5948Z" fill="var(--fill-0, #463D8A)"/>
<path id="Vector_60" d="M21.0428 22.7538L21.1438 21.9078L21.4485 19.3968L21.1438 21.9078L21.0428 22.7538Z" fill="var(--fill-0, #463D8A)"/>
<path id="Vector_61" d="M21.9397 22.5162C21.925 22.5327 21.903 22.5418 21.8866 22.5565C21.903 22.5418 21.925 22.5345 21.9397 22.518V22.5162Z" fill="var(--fill-0, #463D8A)"/>
<path id="Vector_62" d="M26.7164 45.6809V45.6886L26.7183 45.6714L26.7164 45.6809Z" fill="var(--fill-0, #463D8A)"/>
<path id="Vector_63" d="M26.0728 48.9888L25.7266 50.7618L25.312 52.9092L25.7284 50.7636L26.0728 48.9888Z" fill="var(--fill-0, #463D8A)"/>
<path id="Vector_64" d="M67.5166 15.1578C67.5166 15.1578 67.522 15.174 67.5238 15.1812C67.5238 15.1722 67.5202 15.1632 67.5202 15.1578C67.5202 15.1578 67.5184 15.1542 67.5148 15.147C67.4985 15.1164 67.4877 15.0912 67.4715 15.0768C67.4841 15.0912 67.5004 15.1146 67.513 15.1488C67.513 15.1506 67.5148 15.1524 67.5166 15.156V15.1578Z" fill="var(--fill-0, #463D8A)"/>
<path id="Vector_65" d="M66.4908 24.5592L67.1776 18.9036L67.5292 16.0074L67.1776 18.9018L66.4908 24.5592Z" fill="var(--fill-0, #463D8A)"/>
<path id="Vector_66" d="M66.8423 14.9706C66.8315 14.9706 66.8207 14.9706 66.8117 14.9706L66.7396 14.9778C66.7648 14.976 66.7864 14.9742 66.8099 14.9724C66.8207 14.9724 66.8315 14.9724 66.8441 14.9706H66.8423Z" fill="var(--fill-0, #463D8A)"/>
<path id="Vector_67" d="M58.3545 16.2198C58.3545 16.2198 58.3599 16.2378 58.3635 16.2468C58.4014 16.3764 58.4284 16.6824 58.3401 17.4024C58.4302 16.6788 58.405 16.3728 58.3671 16.245C58.3617 16.2342 58.3617 16.2234 58.3563 16.2198H58.3545Z" fill="var(--fill-0, #463D8A)"/>
<path id="Vector_68" d="M66.0851 18.5382L65.2486 25.4232L66.0851 18.5418L66.5178 15.0012L66.0851 18.5382Z" fill="var(--fill-0, #463D8A)"/>
<path id="Vector_69" d="M48.0801 17.0773C48.0801 17.0773 48.0801 17.0751 48.0822 17.073C48.0822 17.073 48.0822 17.0751 48.0801 17.0773Z" fill="var(--fill-0, #463D8A)"/>
<path id="Vector_70" d="M47.6871 18.0738C47.7141 17.8596 47.7574 17.694 47.8061 17.5518C47.8584 17.4006 47.9196 17.2836 47.9827 17.1936C47.9178 17.2836 47.8566 17.4006 47.8043 17.5518C47.7556 17.6958 47.7141 17.8596 47.6871 18.0756V18.0738Z" fill="var(--fill-0, #463D8A)"/>
<path id="Vector_71" d="M47.5645 27.1224C47.5356 27.1566 47.505 27.1854 47.4743 27.2124C47.505 27.1854 47.5374 27.1584 47.5645 27.1224Z" fill="var(--fill-0, #463D8A)"/>
<path id="Vector_72" d="M46.7496 27.1584C46.7334 27.1224 46.7171 27.0648 46.7045 26.9964C46.7171 27.0648 46.7316 27.1224 46.7496 27.1584Z" fill="var(--fill-0, #463D8A)"/>
<path id="Vector_73" d="M46.7496 27.1584C46.755 27.1728 46.7658 27.1836 46.7712 27.198C46.7839 27.2196 46.8001 27.2412 46.8217 27.261C46.8019 27.2412 46.7857 27.2196 46.773 27.198C46.7658 27.1836 46.755 27.171 46.7496 27.1584Z" fill="var(--fill-0, #463D8A)"/>
<path id="Vector_74" d="M48.8012 16.9776C48.8229 16.9974 48.8445 17.0262 48.8643 17.064C48.8697 17.073 48.8733 17.0838 48.877 17.0928C48.8733 17.0838 48.8697 17.0694 48.8661 17.0604C48.8445 17.0262 48.8229 16.9956 48.8012 16.9776Z" fill="var(--fill-0, #463D8A)"/>
<path id="Vector_75" d="M46.6829 26.46C46.6883 26.3646 46.6937 26.2692 46.7063 26.1504C46.6901 26.2692 46.6847 26.3646 46.6793 26.4618C46.6721 26.6148 46.6775 26.7336 46.6847 26.8362C46.6775 26.7336 46.6739 26.6148 46.6811 26.4618L46.6829 26.46Z" fill="var(--fill-0, #463D8A)"/>
<path id="Vector_76" d="M48.5506 16.893C48.5597 16.893 48.5687 16.8948 48.5795 16.8966C48.6246 16.8966 48.6678 16.9038 48.7039 16.9183C48.666 16.9057 48.6228 16.8984 48.5777 16.8948C48.5669 16.8948 48.5597 16.8948 48.5506 16.8948V16.893Z" fill="var(--fill-0, #463D8A)"/>
<path id="Vector_77" d="M6.32258 15.9102L3.67961 37.6866L114.562 26.0514L117.205 4.275L6.32258 15.9102ZM15.1565 33.57L12.3801 33.8616L12.4649 31.3776C12.4649 31.3344 12.4487 31.2948 12.4162 31.266C12.3892 31.2372 12.3477 31.2246 12.3044 31.23L10.3321 31.437C10.2582 31.4442 10.1879 31.5054 10.1771 31.581L9.67047 34.146L6.81295 34.4466L10.3375 18.0342L15.6054 17.4816L15.1565 33.57ZM25.6599 19.9872L25.568 20.709C25.4778 21.4596 25.2705 22.0878 24.9496 22.5738C24.6413 23.0472 24.2086 23.3856 23.666 23.5818C23.5956 23.6106 23.5488 23.6736 23.5488 23.7474C23.5488 23.8212 23.5956 23.8806 23.666 23.8896C24.3258 23.9904 24.7206 24.3378 24.8757 24.9498C25.0343 25.5978 25.0614 26.4204 24.9388 27.3924C24.8108 28.449 24.6034 29.3904 24.3096 30.204C24.0283 30.9942 23.6065 31.635 23.0566 32.1138C22.5139 32.5854 21.7676 32.877 20.8445 32.9742L16.5862 33.4206L18.5585 17.1702L22.8601 16.7202C23.9959 16.5996 24.7891 16.7886 25.2272 17.28C25.6689 17.7768 25.8131 18.6876 25.6599 19.9872ZM34.7913 20.7108L31.9122 21.0114L32.0672 19.7244C32.1141 19.3464 32.0997 19.0296 32.024 18.7758C31.9663 18.5688 31.795 18.3258 31.3154 18.3762C30.8828 18.4212 30.5691 18.6102 30.3816 18.9378C30.2229 19.2258 30.1219 19.5354 30.0787 19.863L29.1033 27.8964C29.0493 28.3608 29.0601 28.7424 29.1502 29.025C29.2205 29.2626 29.4116 29.5308 29.9236 29.4768C30.3293 29.4336 30.634 29.2266 30.8088 28.8828C30.9693 28.5732 31.0757 28.179 31.1351 27.7002L31.4218 25.3386C31.4272 25.2954 31.411 25.2486 31.3839 25.2198C31.3533 25.1856 31.31 25.1748 31.2613 25.1784L30.5691 25.2522L30.8791 22.7124L34.557 22.3272L33.4266 31.653L32.3755 31.7628L32.0185 30.5388C32.0041 30.483 31.95 30.4452 31.8905 30.4416C31.8329 30.4308 31.7679 30.4704 31.7373 30.5208C31.0648 31.572 30.1634 32.1444 28.9807 32.2686C28.0739 32.364 27.3816 32.1696 26.9165 31.698C26.235 30.9978 26.0061 29.6586 26.2458 27.7128L27.1094 20.5686C27.4772 17.5392 28.9267 15.9336 31.539 15.66C32.6009 15.5484 33.3941 15.678 33.8953 16.0398C34.3965 16.4034 34.712 16.9884 34.8238 17.784C34.9356 18.5706 34.9247 19.5516 34.7913 20.7108ZM42.9853 17.4492L39.9042 17.7732C39.8231 17.7822 39.7546 17.8524 39.7491 17.928L39.3543 21.1572C39.3489 21.2058 39.3651 21.2472 39.3922 21.2814C39.4246 21.3102 39.4661 21.3264 39.5148 21.321L42.4264 21.0168L42.0838 23.8104L39.1362 24.1182C39.0569 24.1272 38.9865 24.192 38.9757 24.273L38.5178 28.0692C38.5124 28.1124 38.5232 28.1592 38.5557 28.188C38.5863 28.2222 38.6296 28.233 38.6728 28.2294L41.9306 27.8874L41.5772 30.798L35.1267 31.4748L37.099 15.2262L43.3368 14.571L42.9853 17.4492ZM52.1816 17.5914L51.2279 25.4628C51.0458 26.9298 50.5716 28.1034 49.8144 28.944C49.0572 29.7792 48.0386 30.2688 46.7766 30.402C45.5291 30.5316 44.606 30.2508 44.0453 29.565C43.481 28.8738 43.2845 27.7776 43.4594 26.316L44.4203 18.4446C44.5844 17.0748 45.0477 15.9822 45.7905 15.2082C46.5315 14.4378 47.5537 13.9788 48.8283 13.8456C50.0921 13.7124 51.0187 13.9608 51.5794 14.589C52.1437 15.2172 52.3474 16.2288 52.1816 17.5914ZM60.956 19.2096C60.6892 19.728 60.2421 20.1204 59.6345 20.376C59.5642 20.4048 59.5174 20.4786 59.5228 20.547C59.5282 20.6208 59.575 20.6748 59.6508 20.6838C60.0979 20.727 60.3863 20.9196 60.5251 21.2562C60.6694 21.6252 60.7054 22.122 60.6315 22.7466L59.8905 28.8756L56.9789 29.1816L57.7416 22.8744C57.8119 22.3182 57.7253 21.987 57.4855 21.8628C57.2782 21.7512 56.9483 21.7224 56.4778 21.771C56.3984 21.78 56.3281 21.8466 56.3191 21.9276L55.4177 29.3454L52.4268 29.6586L54.3991 13.41L59.283 12.897C60.0762 12.8142 60.6531 12.9294 60.9993 13.2444C61.3509 13.5594 61.5582 14.0418 61.6177 14.6808C61.6808 15.345 61.6555 16.146 61.5438 17.0676C61.4356 17.946 61.2391 18.6642 60.956 19.2096ZM70.8627 15.354L69.918 23.1138C69.7377 24.6438 69.3212 25.8696 68.6974 26.7498C68.0845 27.612 67.1145 28.1178 65.8129 28.2546L61.6014 28.6974L63.5738 12.447L67.9348 11.9898C69.0598 11.871 69.8765 12.0942 70.3543 12.6558C70.841 13.2228 71.0105 14.1318 70.8627 15.354ZM75.8998 27.1962L75.2814 19.2294C75.2706 19.1448 75.2057 19.0926 75.1264 19.0962C75.0308 19.1016 74.9714 19.1718 74.9605 19.2528L73.9744 27.3978L71.0916 27.7002L73.0639 11.4516L76.145 11.1276L76.6841 18.7578C76.6895 18.8424 76.7526 18.9 76.8373 18.891C76.913 18.8874 76.9869 18.8154 76.9977 18.7344L77.9406 10.9386L80.7891 10.6398L78.815 26.8902L75.8998 27.1962ZM88.5396 12.6702L85.4585 12.9924C85.3792 13.0014 85.3089 13.0716 85.2981 13.149L84.9086 16.3764C84.9032 16.425 84.9195 16.4664 84.9465 16.5006C84.9789 16.5294 85.0204 16.5456 85.0691 16.542L87.9807 16.236L87.6381 19.0296L84.6905 19.3392C84.6058 19.3482 84.5409 19.413 84.53 19.494L84.0667 23.2902C84.0613 23.3316 84.0775 23.3784 84.11 23.4072C84.137 23.4414 84.1839 23.4522 84.2272 23.4486L87.4831 23.1066L87.1279 26.0172L80.681 26.694L82.6533 10.4454L88.8857 9.7902L88.5396 12.6702ZM94.5899 12.1572L92.98 25.4034L90.0269 25.713L91.626 12.5046C91.6315 12.4614 91.6206 12.4146 91.5882 12.3858C91.5575 12.3588 91.5143 12.3408 91.4728 12.3462L89.7078 12.5316L90.054 9.6678L96.8994 8.9496L96.5532 11.8134L94.745 12.0024C94.6656 12.0114 94.6007 12.0762 94.5899 12.1572ZM100.514 14.868C100.539 14.8968 100.588 14.913 100.631 14.9076L103.541 14.6034L103.2 17.3952L100.253 17.7048C100.172 17.7138 100.103 17.7786 100.092 17.8596L99.6343 21.6558C99.6289 21.699 99.6451 21.7458 99.6703 21.7746C99.7028 21.8088 99.7461 21.8196 99.7929 21.8142L103.045 21.474L102.694 24.3846L96.2485 25.0614L98.2209 8.811L104.453 8.1576L104.102 11.0358L101.024 11.3598C100.945 11.367 100.876 11.439 100.866 11.5146L100.471 14.7438C100.465 14.7924 100.482 14.8338 100.514 14.868ZM111.906 23.418L108.989 23.724L108.371 15.7572C108.36 15.6726 108.297 15.6204 108.218 15.624C108.126 15.6276 108.063 15.6978 108.052 15.7806L107.066 23.9256L104.181 24.228L106.153 7.9794L109.234 7.6554L109.773 15.2856C109.779 15.3702 109.842 15.426 109.923 15.4188C110.002 15.4152 110.078 15.3432 110.089 15.2622L111.032 7.4664L113.879 7.1676L111.906 23.418Z" fill="var(--fill-0, #463D8A)"/>
<path id="Vector_78" d="M8.19393 40.743L5.54916 62.5194L10.9162 61.956L22.1137 70.155H22.1155L23.547 60.6312L58.8179 56.9304L61.4626 35.154L8.19393 40.743ZM14.9474 59.2506L15.0916 51.5214C15.097 51.4422 15.0339 51.3792 14.9528 51.3774C14.8789 51.3792 14.7978 51.4368 14.7779 51.5178L13.0544 59.4486L9.34956 59.8374L9.60015 43.7688L12.4793 43.4664L12.1223 53.6652C12.1169 53.7498 12.1764 53.8128 12.2612 53.8146C12.3405 53.8128 12.4162 53.757 12.4378 53.6688L14.6012 43.2432L17.3578 42.9534L16.9684 53.1558C16.9684 53.2422 17.0279 53.3034 17.1072 53.307C17.1919 53.3034 17.2677 53.2422 17.2821 53.1612L19.404 42.7392L22.3156 42.4332L18.5891 58.8672L14.9474 59.2506ZM29.39 57.735L26.6118 58.0266L26.6983 55.5408C26.6983 55.494 26.6821 55.458 26.6551 55.4292C26.6226 55.4004 26.5794 55.3896 26.5379 55.3932L24.5656 55.6002C24.4917 55.6092 24.4268 55.6686 24.4105 55.7442L23.9039 58.311L21.0518 58.6098L24.5764 42.1974L29.8371 41.6448L29.39 57.735ZM36.5383 43.9056L34.9337 57.1518L31.9753 57.4632L33.5798 44.2548C33.5852 44.2098 33.569 44.1648 33.542 44.136C33.5113 44.1018 33.468 44.0892 33.4194 44.0946L31.6562 44.28L32.0023 41.418L38.8531 40.698L38.5016 43.5618L36.6987 43.7508C36.6194 43.7598 36.5491 43.8246 36.5383 43.9056ZM44.2472 43.0128C44.1138 42.8022 43.8849 42.714 43.5658 42.7482C43.2088 42.786 42.942 42.9516 42.7761 43.2414C42.6319 43.4898 42.5363 43.8192 42.4877 44.208L41.4817 52.506C41.4222 53.001 41.4546 53.343 41.5881 53.5482C41.7269 53.7678 41.9558 53.8668 42.2587 53.8344C42.5958 53.7984 42.8555 53.6328 43.0267 53.3376C43.1818 53.073 43.2881 52.7418 43.3314 52.3476L43.6776 49.5072L46.6522 49.194L46.2953 52.1496C46.124 53.5572 45.6499 54.6228 44.8764 55.3212C44.103 56.0196 43.0754 56.4426 41.817 56.574C40.6812 56.6928 39.8068 56.4336 39.2101 55.7982C38.6079 55.1646 38.3844 54.1872 38.543 52.8984L39.4715 45.2538C39.6626 43.6842 40.1169 42.4404 40.8254 41.5512C41.5231 40.68 42.5688 40.1598 43.939 40.0158C44.6853 39.9366 45.3416 40.0068 45.8842 40.221C46.4233 40.437 46.8217 40.7988 47.0831 41.3046C47.3499 41.814 47.4311 42.4926 47.3283 43.3332L46.9984 46.0494L44.0616 46.359L44.3338 44.0946C44.4023 43.5546 44.3698 43.2018 44.2472 43.0128ZM55.0481 55.0422L52.1113 55.35L53.0019 48.0168C53.0073 47.9682 52.9965 47.9286 52.964 47.8944C52.9316 47.8656 52.8901 47.8476 52.8468 47.853L51.3018 48.015C51.2207 48.024 51.1522 48.0888 51.1413 48.1698L50.2453 55.5462L47.3085 55.854L49.2808 39.6036L52.2176 39.2958L51.5253 45.0378C51.5199 45.081 51.5307 45.1278 51.5614 45.1566C51.5884 45.1908 51.6371 45.2016 51.6804 45.1962L53.2254 45.0342C53.3048 45.027 53.3751 44.9604 53.3859 44.8794L54.0836 39.0996L57.0204 38.7918L55.0481 55.0422Z" fill="var(--fill-0, #463D8A)"/>
<path id="Vector_79" d="M27.0283 44.4564C27.0012 44.433 26.958 44.4168 26.9165 44.4204L26.7669 44.4366C26.6929 44.4438 26.6226 44.505 26.6118 44.5806L24.9658 53.073C24.955 53.1216 24.9658 53.1684 24.9965 53.2026C25.0289 53.2368 25.0722 53.253 25.1191 53.2476L26.6064 53.0928C26.6929 53.0838 26.7669 53.0064 26.7669 52.9218L27.0769 44.5698C27.0769 44.5266 27.0607 44.4852 27.0283 44.4564ZM25.7284 50.7636L25.312 52.9092L25.7266 50.7618L26.0728 48.9888L25.7284 50.7636Z" fill="var(--fill-0, #463D8A)"/>
<path id="Vector_80" d="M12.8381 20.4066L12.5334 28.7568C12.528 28.8432 12.4595 28.9188 12.3747 28.9278L10.8874 29.0844C10.8387 29.0898 10.79 29.0736 10.7648 29.0394C10.7323 29.0052 10.7215 28.9584 10.7269 28.9098L12.3747 20.4174C12.391 20.3472 12.4541 20.2806 12.5334 20.2734L12.6776 20.2572C12.7263 20.2536 12.7623 20.2698 12.7948 20.2986C12.8273 20.322 12.8435 20.3634 12.8381 20.4066Z" fill="var(--fill-0, #463D8A)"/>
<path id="Vector_81" d="M22.0398 25.7112C21.9478 25.4916 21.7189 25.2378 21.1546 25.2972L20.547 25.362C20.4659 25.3692 20.3974 25.4412 20.392 25.5222L19.8061 30.321C19.8007 30.3624 19.8169 30.4038 19.8421 30.4326C19.8692 30.4668 19.907 30.4848 19.9503 30.4812C20.0927 30.4812 20.2063 30.4758 20.291 30.4668C21.2123 30.3696 21.7622 29.8494 21.8685 28.953L22.1191 26.883C22.184 26.388 22.1516 25.992 22.0398 25.7112ZM20.2604 29.1852L20.1414 30.1626L20.2586 29.187L20.6913 25.6662L20.2604 29.1852Z" fill="var(--fill-0, #463D8A)"/>
<path id="Vector_82" d="M22.5933 19.1844C22.4599 19.0494 22.2633 18.9972 21.9965 19.0242L21.3096 19.0962C21.2285 19.1052 21.16 19.17 21.1492 19.251L20.7075 22.9284C20.7003 22.977 20.7111 23.0184 20.7435 23.0526C20.776 23.0814 20.8175 23.0976 20.8607 23.0922L21.5332 23.022C21.9911 22.9752 22.2039 22.7124 22.3066 22.5C22.4292 22.2372 22.5139 21.924 22.5572 21.573L22.7591 19.908C22.797 19.5786 22.7429 19.3338 22.5933 19.1844Z" fill="var(--fill-0, #463D8A)"/>
<path id="Vector_83" d="M49.041 16.74C48.9076 16.605 48.7273 16.5492 48.5038 16.5726C48.0657 16.6194 47.5122 16.9164 47.3734 18.0702L46.3926 26.1468C46.3277 26.6958 46.3494 27.0774 46.4557 27.315C46.5405 27.4986 46.7388 27.7128 47.1751 27.666C47.7628 27.6048 48.1252 27.0342 48.2586 25.9722L49.2393 17.8848C49.3078 17.3178 49.2393 16.9488 49.041 16.74ZM46.6829 26.46C46.6793 26.5122 46.6775 26.5608 46.6775 26.604C46.6775 26.5608 46.6775 26.5122 46.6793 26.4618C46.6847 26.3664 46.6901 26.2692 46.7063 26.1504C46.6919 26.2692 46.6883 26.3664 46.6829 26.46ZM46.7712 27.198C46.7712 27.198 46.7694 27.1944 46.7694 27.1926C46.7712 27.1926 46.773 27.1962 46.773 27.198C46.7857 27.2196 46.8001 27.2412 46.8199 27.261C46.8001 27.2412 46.7838 27.2196 46.7712 27.198ZM47.788 17.6058C47.7826 17.6238 47.7754 17.6436 47.77 17.6616C47.7754 17.6436 47.7808 17.6238 47.7862 17.6058H47.788C47.7934 17.586 47.7989 17.568 47.8043 17.55C47.8115 17.532 47.8187 17.514 47.8259 17.496C47.8205 17.514 47.8133 17.532 47.8061 17.5518C47.8007 17.568 47.7934 17.586 47.788 17.6058ZM47.8421 17.4564V17.4528C47.8421 17.4528 47.8439 17.4474 47.8457 17.4438C47.8493 17.4384 47.8511 17.4312 47.8547 17.4258C47.8511 17.4348 47.8475 17.4456 47.8421 17.4564ZM48.5795 16.8966C48.5795 16.8966 48.5723 16.8966 48.5687 16.8948H48.5777C48.6011 16.8966 48.6228 16.8984 48.6444 16.9038C48.6228 16.9002 48.6011 16.8984 48.5795 16.8966ZM48.8643 17.064C48.8643 17.064 48.8535 17.046 48.8499 17.0388C48.8571 17.046 48.8607 17.0532 48.8661 17.0622C48.8697 17.0712 48.8733 17.0838 48.877 17.0946C48.8733 17.0838 48.8679 17.073 48.8643 17.064Z" fill="var(--fill-0, #463D8A)"/>
<path id="Vector_84" d="M58.6538 16.0776C58.5835 15.903 58.4086 15.7032 57.9813 15.7482L57.2187 15.8292C57.1394 15.8364 57.0709 15.903 57.0601 15.984L56.6869 19.0512C56.6815 19.0998 56.6959 19.1412 56.7284 19.1754C56.7554 19.2042 56.7987 19.2204 56.8455 19.215L57.6352 19.1322C58.1796 19.0764 58.5258 18.4914 58.6538 17.4078C58.7385 16.7274 58.7385 16.2918 58.6538 16.0776ZM58.3978 16.479V16.4916C58.3978 16.4916 58.3978 16.4844 58.396 16.4808H58.3978V16.479ZM58.3545 16.2198C58.3545 16.2198 58.3599 16.236 58.3653 16.245C58.3689 16.2612 58.3744 16.281 58.378 16.3026C58.3725 16.281 58.3689 16.263 58.3635 16.2468C58.3599 16.2378 58.3581 16.227 58.3545 16.2198ZM58.396 16.7904C58.396 16.8012 58.396 16.8102 58.396 16.821C58.396 16.821 58.3942 16.821 58.3942 16.8246C58.396 16.8102 58.396 16.7976 58.396 16.785C58.396 16.7832 58.396 16.7814 58.396 16.7796V16.7904ZM58.3978 16.7184V16.7526C58.3978 16.7526 58.3978 16.7562 58.396 16.758C58.396 16.7436 58.396 16.731 58.3978 16.7184V16.6788C58.3978 16.6788 58.3996 16.659 58.3996 16.65C58.3996 16.6716 58.3996 16.695 58.3978 16.7184ZM58.3996 16.6068C58.3996 16.5834 58.3978 16.56 58.3978 16.5402V16.506H58.3996C58.3996 16.5348 58.4014 16.5654 58.4014 16.5996C58.4014 16.6014 58.4014 16.6032 58.3996 16.605V16.6068Z" fill="var(--fill-0, #463D8A)"/>
<path id="Vector_85" d="M67.7221 14.8536C67.5617 14.6736 67.2425 14.607 66.7359 14.6592L66.3736 14.697C66.2924 14.706 66.2293 14.7762 66.2185 14.8572L64.9115 25.5978C64.9079 25.641 64.9223 25.6878 64.9493 25.7166C64.9818 25.749 65.0232 25.7616 65.0719 25.7562L65.638 25.6968C66.3195 25.6248 66.7251 25.2324 66.8045 24.5628L67.8447 16.0182C67.9186 15.4026 67.8808 15.0336 67.7221 14.8536ZM66.8081 14.9724C66.7846 14.976 66.763 14.976 66.7377 14.9778L66.8099 14.9706C66.8099 14.9706 66.8315 14.9706 66.8423 14.9706C66.8297 14.9706 66.8189 14.9724 66.8081 14.9724ZM67.5166 15.1578C67.5166 15.1578 67.5148 15.1542 67.5148 15.1524C67.5148 15.1542 67.5166 15.156 67.5184 15.1578C67.5184 15.1596 67.5202 15.1632 67.5202 15.1668C67.5184 15.1632 67.5166 15.1596 67.5166 15.1578Z" fill="var(--fill-0, #463D8A)"/>
</g>
</g>
<defs>
<clipPath id="clip0_7205_10445">
<rect width="120" height="72" fill="white"/>
</clipPath>
</defs>
</svg>
